<?xml version="1.0" encoding="utf-8"?>
<!-- Generator: Adobe Illustrator 24.0.1, SVG Export Plug-In . SVG Version: 6.00 Build 0)  -->
<svg version="1.1" id="Layer_1" xmlns="http://www.w3.org/2000/svg" xmlns:xlink="http://www.w3.org/1999/xlink" x="0px" y="0px"
	 viewBox="0 0 216 108" style="enable-background:new 0 0 216 108;" xml:space="preserve">
<style type="text/css">
	.st0{fill:#FFFFFF;}
</style>
<g>
	<path class="st0" d="M69.6,19c-0.7-0.7-1.1-1.5-1.1-2.5s0.4-1.8,1.1-2.5s1.5-1.1,2.5-1.1s1.8,0.4,2.5,1.1c0.7,0.7,1.1,1.5,1.1,2.5
		s-0.4,1.8-1.1,2.5s-1.5,1.1-2.5,1.1C71.2,20,70.3,19.7,69.6,19z M69.6,31.1h5.2v42.4h-5.2V31.1z"/>
	<path class="st0" d="M90.4,71.1c-3.3-1.9-5.9-4.6-7.9-7.9c-1.9-3.3-2.9-6.9-2.9-10.8s1-7.5,2.9-10.8s4.6-5.9,7.9-7.9
		c3.3-1.9,6.9-2.9,10.8-2.9c4.1,0,7.8,1,11.2,3.1c3.4,2.1,6.1,5,8,8.6l-5,1.8c-1.3-2.5-3.2-4.6-5.8-6.1c-2.6-1.5-5.4-2.3-8.4-2.3
		s-5.7,0.7-8.3,2.2c-2.5,1.5-4.5,3.5-6,6s-2.2,5.3-2.2,8.3s0.7,5.7,2.2,8.3c1.5,2.5,3.5,4.5,6,6s5.3,2.2,8.3,2.2s5.9-0.8,8.4-2.3
		c2.6-1.6,4.6-3.7,6-6.4l4.9,1.9c-1.8,3.7-4.5,6.7-8,8.9c-3.5,2.2-7.3,3.3-11.4,3.3C97.3,74.1,93.7,73.1,90.4,71.1z"/>
	<path class="st0" d="M150.8,34.6c3,2.7,4.5,6.7,4.5,11.9v27h-5.2v-6.3c-1.7,2-3.7,3.5-6,4.7s-4.8,1.7-7.5,1.7
		c-4.4,0-8-1.1-10.8-3.4s-4.2-5.3-4.2-9.1V61c0-4,1.6-7.1,4.8-9.2c3.2-2.1,7.4-3.2,12.5-3.2c2,0,4,0.2,5.9,0.6c2,0.4,3.7,1,5.2,1.7
		v-4.4c0-3.3-1-6-3.1-7.9s-4.6-2.9-7.8-2.9c-2,0-3.9,0.5-5.6,1.5c-1.7,1-3,2.4-3.9,4.1l-5.2-1.7c1.3-2.8,3.3-5,5.9-6.6
		c2.7-1.6,5.6-2.5,8.7-2.5C144,30.4,147.8,31.8,150.8,34.6z M143.3,67.4c2.1-1,3.7-2.3,4.9-3.9s1.8-3.4,1.8-5.4v-3.4
		c-3.5-1.2-7.2-1.9-11-1.9c-3.6,0-6.5,0.7-8.8,2.2s-3.4,3.5-3.4,6v0.2c0,2.4,0.9,4.2,2.8,5.6c1.8,1.4,4.2,2,7.1,2
		C139,68.8,141.2,68.3,143.3,67.4z"/>
	<path class="st0" d="M191.7,33c3.3,1.9,5.9,4.5,7.9,7.8c1.9,3.3,2.9,6.9,2.9,10.9c0,3.9-1,7.5-2.9,10.8s-4.5,6-7.8,7.9
		c-3.3,1.9-6.9,2.9-10.9,2.9c-5.6,0-10.4-2.4-14.6-7.2v27.3H161V30.8h5.3v6.5c2-2.2,4.2-4,6.7-5.3s5.1-1.9,7.8-1.9
		C184.8,30.1,188.4,31.1,191.7,33z M189.1,65.9c2.5-1.5,4.5-3.5,6-6s2.2-5.3,2.2-8.3s-0.7-5.7-2.2-8.3c-1.5-2.5-3.5-4.5-6-6
		s-5.3-2.2-8.3-2.2c-3.1,0-6,0.8-8.6,2.5c-2.6,1.6-4.6,3.9-6,6.7v15.1c1.5,2.7,3.5,4.8,6.1,6.3c2.6,1.6,5.4,2.3,8.5,2.3
		C183.9,68.1,186.6,67.4,189.1,65.9z"/>
	<g>
		<path class="st0" d="M39.7,73.4h-4.3v-6.6c0-7.6,6.2-13.8,13.8-13.8h6.6v4.3h-6.6c-5.2,0-9.5,4.2-9.5,9.5V73.4z"/>
	</g>
	<g>
		<path class="st0" d="M55.8,51.6h-6.6c-7.6,0-13.8-6.2-13.8-13.8v-6.6h4.3v6.6c0,5.2,4.2,9.5,9.5,9.5h6.6V51.6z"/>
	</g>
	<g>
		<path class="st0" d="M33.9,73.4h-4.3v-6.6c0-5.2-4.2-9.5-9.5-9.5h-6.6V53h6.6c7.6,0,13.8,6.2,13.8,13.8V73.4z"/>
	</g>
	<g>
		<path class="st0" d="M20.1,51.6h-6.6v-4.3h6.6c5.2,0,9.5-4.2,9.5-9.5v-6.6h4.3v6.6C33.9,45.4,27.7,51.6,20.1,51.6z"/>
	</g>
	<circle class="st0" cx="49.7" cy="36.8" r="5.6"/>
	<circle class="st0" cx="49.7" cy="67.8" r="5.6"/>
	<circle class="st0" cx="19.1" cy="67.8" r="5.6"/>
	<circle class="st0" cx="19.1" cy="36.8" r="5.6"/>
	<g>
		<path class="st0" d="M70.2,78.4h0.7v2.4h2.9v-2.4h0.7V84h-0.7v-2.6h-2.9V84h-0.7V78.4z"/>
		<path class="st0" d="M76.4,79.3h-0.7v-0.8h0.7V79.3z M75.8,80h0.7v4h-0.7V80z"/>
		<path class="st0" d="M77.5,80h0.6v0.6l0,0c0.3-0.5,0.8-0.7,1.3-0.7s0.9,0.2,1.1,0.7c0.3-0.4,0.8-0.7,1.3-0.7
			c0.8,0,1.3,0.3,1.3,1.2v3h-0.7v-2.7c0-0.5-0.1-0.9-0.8-0.9c-0.6,0-1.1,0.4-1.1,1V84H80v-2.7c0-0.5-0.2-0.9-0.8-0.9
			c-0.8,0-1.1,0.7-1.1,1V84h-0.7L77.5,80L77.5,80z"/>
		<path class="st0" d="M87.8,84c-0.1,0.1-0.3,0.1-0.5,0.1c-0.3,0-0.6-0.2-0.6-0.6c-0.4,0.4-0.9,0.6-1.4,0.6c-0.7,0-1.3-0.3-1.3-1.1
			c0-0.9,0.7-1.1,1.4-1.2c0.7-0.1,1.4-0.1,1.4-0.6c0-0.6-0.5-0.7-0.9-0.7c-0.6,0-1,0.2-1,0.8h-0.7c0-1,0.8-1.4,1.7-1.4
			c0.7,0,1.5,0.2,1.5,1.1v2.1c0,0.3,0,0.5,0.2,0.5c0.1,0,0.1,0,0.2,0C87.8,83.6,87.8,84,87.8,84z M86.7,82c-0.3,0.2-0.8,0.2-1.2,0.3
			c-0.4,0.1-0.8,0.2-0.8,0.7c0,0.4,0.4,0.6,0.8,0.6c0.9,0,1.2-0.5,1.2-0.9V82z"/>
		<path class="st0" d="M88.4,78.4h0.7V84h-0.7V78.4z"/>
		<path class="st0" d="M93.7,84c-0.1,0.1-0.3,0.1-0.5,0.1c-0.3,0-0.6-0.2-0.6-0.6c-0.4,0.4-0.9,0.6-1.4,0.6c-0.7,0-1.3-0.3-1.3-1.1
			c0-0.9,0.7-1.1,1.4-1.2c0.7-0.1,1.4-0.1,1.4-0.6c0-0.6-0.5-0.7-0.9-0.7c-0.6,0-1,0.2-1,0.8h-0.7c0-1,0.8-1.4,1.7-1.4
			c0.7,0,1.5,0.2,1.5,1.1v2.1c0,0.3,0,0.5,0.2,0.5c0.1,0,0.1,0,0.2,0C93.7,83.6,93.7,84,93.7,84z M92.6,82c-0.3,0.2-0.8,0.2-1.2,0.3
			c-0.4,0.1-0.8,0.2-0.8,0.7c0,0.4,0.4,0.6,0.8,0.6c0.9,0,1.2-0.5,1.2-0.9V82z"/>
		<path class="st0" d="M95.9,84.6c-0.3,0.8-0.6,1.1-1.2,1.1c-0.2,0-0.3,0-0.5-0.1V85c0.1,0,0.3,0.1,0.4,0.1c0.3,0,0.4-0.1,0.5-0.4
			l0.3-0.7l-1.6-4h0.8l1.2,3.3l0,0L97,80h0.7L95.9,84.6z"/>
		<path class="st0" d="M101.9,84c-0.1,0.1-0.3,0.1-0.5,0.1c-0.3,0-0.6-0.2-0.6-0.6c-0.4,0.4-0.9,0.6-1.4,0.6c-0.7,0-1.3-0.3-1.3-1.1
			c0-0.9,0.7-1.1,1.4-1.2c0.7-0.1,1.4-0.1,1.4-0.6c0-0.6-0.5-0.7-0.9-0.7c-0.6,0-1,0.2-1,0.8h-0.7c0-1,0.8-1.4,1.7-1.4
			c0.7,0,1.5,0.2,1.5,1.1v2.1c0,0.3,0,0.5,0.2,0.5c0.1,0,0.1,0,0.2,0C101.9,83.6,101.9,84,101.9,84z M100.8,82
			c-0.3,0.2-0.8,0.2-1.2,0.3c-0.4,0.1-0.8,0.2-0.8,0.7c0,0.4,0.4,0.6,0.8,0.6c0.9,0,1.2-0.5,1.2-0.9V82z"/>
		<path class="st0" d="M102.5,80h0.6v0.6l0,0c0.3-0.5,0.7-0.7,1.3-0.7c1.1,0,1.4,0.6,1.4,1.5V84h-0.7v-2.7c0-0.5-0.3-0.8-0.8-0.8
			c-0.8,0-1.2,0.5-1.2,1.3V84h-0.7L102.5,80L102.5,80z"/>
		<path class="st0" d="M109.2,78.4h0.7V84h-0.7V78.4z"/>
		<path class="st0" d="M111,80h0.6v0.6l0,0c0.3-0.5,0.7-0.7,1.3-0.7c1.1,0,1.4,0.6,1.4,1.5V84h-0.7v-2.7c0-0.5-0.3-0.8-0.8-0.8
			c-0.8,0-1.2,0.5-1.2,1.3V84H111V80z"/>
		<path class="st0" d="M115.8,82.8c0,0.6,0.5,0.8,1.1,0.8c0.4,0,1-0.1,1-0.6s-0.7-0.6-1.3-0.8c-0.7-0.1-1.3-0.4-1.3-1.1
			c0-0.8,0.8-1.2,1.5-1.2c0.9,0,1.6,0.3,1.7,1.3h-0.7c0-0.5-0.5-0.7-0.9-0.7S116,80.6,116,81c0,0.5,0.7,0.6,1.3,0.7
			c0.7,0.1,1.3,0.4,1.3,1.2c0,1-0.9,1.3-1.7,1.3c-0.9,0-1.7-0.4-1.7-1.4C115.2,82.8,115.8,82.8,115.8,82.8z"/>
		<path class="st0" d="M120.3,80h0.8v0.6h-0.8v2.5c0,0.3,0.1,0.4,0.5,0.4h0.3V84h-0.5c-0.7,0-1-0.1-1-0.9v-2.6h-0.7V80h0.7v-1.2h0.7
			V80z"/>
		<path class="st0" d="M122.5,79.3h-0.7v-0.8h0.7V79.3z M121.8,80h0.7v4h-0.7V80z"/>
		<path class="st0" d="M124.5,80h0.8v0.6h-0.8v2.5c0,0.3,0.1,0.4,0.5,0.4h0.3V84h-0.5c-0.7,0-1-0.1-1-0.9v-2.6h-0.7V80h0.7v-1.2h0.7
			V80z"/>
		<path class="st0" d="M129.4,84h-0.6v-0.6l0,0c-0.3,0.5-0.7,0.7-1.3,0.7c-1.1,0-1.4-0.6-1.4-1.5V80h0.7v2.7c0,0.5,0.3,0.8,0.8,0.8
			c0.8,0,1.2-0.5,1.2-1.3V80h0.7L129.4,84L129.4,84z"/>
		<path class="st0" d="M131.3,80h0.8v0.6h-0.8v2.5c0,0.3,0.1,0.4,0.5,0.4h0.3V84h-0.5c-0.7,0-1-0.1-1-0.9v-2.6h-0.7V80h0.7v-1.2h0.7
			V80z"/>
		<path class="st0" d="M136.3,82.8c-0.2,0.9-0.8,1.4-1.7,1.4c-1.3,0-1.9-0.9-1.9-2.1s0.8-2.1,1.9-2.1c1.4,0,1.9,1.3,1.8,2.3h-3
			c0,0.7,0.4,1.3,1.3,1.3c0.5,0,0.9-0.3,1.1-0.8C135.8,82.8,136.3,82.8,136.3,82.8z M135.7,81.6c0-0.6-0.5-1.1-1.2-1.1
			s-1.1,0.5-1.2,1.1H135.7z"/>
		<path class="st0" d="M141,79.9c1.3,0,2,0.9,2,2.1s-0.7,2.1-2,2.1s-2-0.9-2-2.1S139.7,79.9,141,79.9z M141,83.6
			c0.7,0,1.3-0.5,1.3-1.5s-0.6-1.5-1.3-1.5s-1.3,0.5-1.3,1.5C139.7,83,140.3,83.6,141,83.6z"/>
		<path class="st0" d="M144,80.6h-0.7V80h0.7v-0.6c0-0.7,0.4-1,1.1-1c0.1,0,0.3,0,0.4,0.1V79c-0.1,0-0.3-0.1-0.4-0.1
			c-0.3,0-0.5,0.1-0.5,0.5V80h0.8v0.6h-0.8V84H144V80.6z"/>
		<path class="st0" d="M74.1,89.5c-0.2-0.8-0.8-1.2-1.6-1.2c-1.3,0-1.9,1.1-1.9,2.3c0,1.3,0.6,2.3,1.9,2.3c1,0,1.5-0.7,1.6-1.6h0.7
			c-0.1,1.4-1,2.2-2.4,2.2c-1.7,0-2.6-1.3-2.6-2.9s0.9-2.9,2.7-2.9c1.2,0,2.1,0.6,2.3,1.8C74.8,89.5,74.1,89.5,74.1,89.5z"/>
		<path class="st0" d="M76.4,88.7h-0.7v-0.8h0.7V88.7z M75.8,89.4h0.7v4.1h-0.7V89.4z"/>
		<path class="st0" d="M79.3,93.5h-0.7l-1.5-4.1h0.7l1.1,3.4l0,0l1.1-3.4h0.7L79.3,93.5z"/>
		<path class="st0" d="M82.1,88.7h-0.7v-0.8h0.7V88.7z M81.4,89.4h0.7v4.1h-0.7V89.4z"/>
		<path class="st0" d="M85.9,90.7c-0.1-0.5-0.5-0.8-1-0.8c-1,0-1.3,0.8-1.3,1.6c0,0.7,0.3,1.5,1.2,1.5c0.6,0,1-0.4,1.1-1h0.7
			c-0.1,1-0.8,1.6-1.8,1.6c-1.2,0-1.9-0.9-1.9-2.1s0.6-2.2,1.9-2.2c0.9,0,1.7,0.4,1.7,1.4H85.9z"/>
		<path class="st0" d="M91.2,87.9H92l2.2,5.6h-0.8l-0.6-1.7h-2.4l-0.6,1.7H89L91.2,87.9z M90.6,91.1h1.9l-0.9-2.6l0,0L90.6,91.1z"/>
		<path class="st0" d="M97.4,90.7c-0.1-0.5-0.5-0.8-1-0.8c-1,0-1.3,0.8-1.3,1.6c0,0.7,0.3,1.5,1.2,1.5c0.6,0,1-0.4,1.1-1h0.7
			c-0.1,1-0.8,1.6-1.8,1.6c-1.2,0-1.9-0.9-1.9-2.1s0.6-2.2,1.9-2.2c0.9,0,1.7,0.4,1.7,1.4H97.4z"/>
		<path class="st0" d="M99.8,89.4h0.8V90h-0.8v2.5c0,0.3,0.1,0.4,0.5,0.4h0.3v0.6h-0.5c-0.7,0-1-0.1-1-0.9V90h-0.7v-0.6h0.7v-1.2
			h0.7V89.4z"/>
		<path class="st0" d="M102,88.7h-0.7v-0.8h0.7V88.7z M101.3,89.4h0.7v4.1h-0.7V89.4z"/>
		<path class="st0" d="M104.8,89.3c1.3,0,2,0.9,2,2.1s-0.7,2.1-2,2.1s-2-0.9-2-2.1C102.8,90.2,103.5,89.3,104.8,89.3z M104.8,93
			c0.7,0,1.3-0.5,1.3-1.5s-0.6-1.5-1.3-1.5c-0.7,0-1.3,0.5-1.3,1.5C103.5,92.4,104.1,93,104.8,93z"/>
		<path class="st0" d="M107.5,89.4h0.6V90l0,0c0.3-0.5,0.7-0.7,1.3-0.7c1.1,0,1.4,0.6,1.4,1.5v2.7h-0.7v-2.7c0-0.5-0.3-0.8-0.8-0.8
			c-0.8,0-1.2,0.5-1.2,1.3v2.3h-0.7L107.5,89.4L107.5,89.4z"/>
		<path class="st0" d="M117.7,93.4c-0.1,0.1-0.3,0.1-0.5,0.1c-0.3,0-0.6-0.2-0.6-0.6c-0.4,0.4-0.9,0.6-1.4,0.6
			c-0.7,0-1.3-0.3-1.3-1.1c0-0.9,0.7-1.1,1.4-1.2c0.7-0.1,1.4-0.1,1.4-0.6c0-0.6-0.5-0.7-0.9-0.7c-0.6,0-1,0.2-1,0.8H114
			c0-1,0.8-1.4,1.7-1.4c0.7,0,1.5,0.2,1.5,1.1v2.1c0,0.3,0,0.5,0.2,0.5c0.1,0,0.1,0,0.2,0v0.4H117.7z M116.6,91.4
			c-0.3,0.2-0.8,0.2-1.2,0.3c-0.4,0.1-0.8,0.2-0.8,0.7c0,0.4,0.4,0.6,0.8,0.6c0.9,0,1.2-0.5,1.2-0.9V91.4z"/>
		<path class="st0" d="M118.3,89.4h0.6V90l0,0c0.3-0.5,0.7-0.7,1.3-0.7c1.1,0,1.4,0.6,1.4,1.5v2.7H121v-2.7c0-0.5-0.3-0.8-0.8-0.8
			c-0.8,0-1.2,0.5-1.2,1.3v2.3h-0.7V89.4z"/>
		<path class="st0" d="M126.3,93.5h-0.7V93l0,0c-0.2,0.4-0.7,0.6-1.3,0.6c-1.2,0-1.9-1-1.9-2.1s0.6-2.1,1.9-2.1c0.4,0,1,0.2,1.3,0.6
			l0,0v-2.1h0.7V93.5z M124.4,93c0.9,0,1.2-0.8,1.2-1.5c0-0.8-0.4-1.5-1.3-1.5s-1.2,0.8-1.2,1.6C123.2,92.2,123.5,93,124.4,93z"/>
		<path class="st0" d="M129.6,87.9h2.5c1.1,0,1.7,0.6,1.7,1.7s-0.6,1.7-1.7,1.7h-1.7v2.3h-0.7v-5.7H129.6z M130.4,90.5h1.5
			c0.8,0,1.2-0.4,1.2-1c0-0.7-0.4-1-1.2-1h-1.5V90.5z"/>
		<path class="st0" d="M136.3,89.3c1.3,0,2,0.9,2,2.1s-0.7,2.1-2,2.1s-2-0.9-2-2.1C134.4,90.2,135,89.3,136.3,89.3z M136.3,93
			c0.7,0,1.3-0.5,1.3-1.5S137,90,136.3,90s-1.3,0.5-1.3,1.5C135.1,92.4,135.6,93,136.3,93z"/>
		<path class="st0" d="M139.1,87.9h0.7v5.6h-0.7V87.9z"/>
		<path class="st0" d="M141.5,88.7h-0.7v-0.8h0.7V88.7z M140.9,89.4h0.7v4.1h-0.7V89.4z"/>
		<path class="st0" d="M145.3,90.7c-0.1-0.5-0.5-0.8-1-0.8c-1,0-1.3,0.8-1.3,1.6c0,0.7,0.3,1.5,1.2,1.5c0.6,0,1-0.4,1.1-1h0.7
			c-0.1,1-0.8,1.6-1.8,1.6c-1.2,0-1.9-0.9-1.9-2.1s0.6-2.2,1.9-2.2c0.9,0,1.7,0.4,1.7,1.4H145.3z"/>
		<path class="st0" d="M148.4,94c-0.3,0.8-0.6,1.1-1.2,1.1c-0.2,0-0.3,0-0.5-0.1v-0.6c0.1,0,0.3,0.1,0.4,0.1c0.3,0,0.4-0.1,0.5-0.4
			l0.3-0.7l-1.6-4h0.8l1.2,3.3l0,0l1.1-3.3h0.7L148.4,94z"/>
	</g>
</g>
</svg>
