<?xml version="1.0" encoding="utf-8"?>
<!-- Generator: Adobe Illustrator 25.0.1, SVG Export Plug-In . SVG Version: 6.00 Build 0)  -->
<svg version="1.1" id="Layer_1" xmlns="http://www.w3.org/2000/svg" xmlns:xlink="http://www.w3.org/1999/xlink" x="0px" y="0px"
	 viewBox="0 0 1920 1080" style="enable-background:new 0 0 1920 1080;" xml:space="preserve">
<style type="text/css">
	.st0{clip-path:url(#SVGID_2_);fill:#F0603A;}
	.st1{clip-path:url(#SVGID_2_);fill:#108853;}
	.st2{clip-path:url(#SVGID_2_);fill:#501D30;}
	.st3{display:none;clip-path:url(#SVGID_2_);}
	.st4{display:inline;fill:#5E5E5E;}
</style>
<g>
	<g>
		<defs>
			<rect id="SVGID_1_" x="-48.6" width="2036.9" height="1357.9"/>
		</defs>
		<use xlink:href="#SVGID_1_"  style="overflow:visible;fill:#F7F0EE;"/>
		<clipPath id="SVGID_2_">
			<use xlink:href="#SVGID_1_"  style="overflow:visible;"/>
		</clipPath>
		<path class="st0" d="M1100.3-133.6c66.3,36.5,87.4,115.6,79.7,186.5c-12.8,117.9-117.9,139.2-184.6,216.5
			c-42.6,49.3-38,96.8-37.6,158.1c0.5,92.2-20.3,142.4-99.4,194.3c-53.2,34.9-81.8,49.1-80.9,113.8c1,71.6,31.1,145.5,12.9,216.9
			c-20.8,81.8-91.4,99.6-150.7,142.1c-38.9,27.9-42,57.1-46.3,102.1c-11.1,115.5-4.9,197-126.1,249.3
			c-119.9,51.7-264.5,36.4-387.7,5.1c-234.2-59.5-296.8-359.9-322.5-570c-20.5-167.7-16.6-340.8-15.1-509.5
			c1-113.4,1.4-254.5,58.3-356.4c49.1-88.1,164.2-119.4,255-147.8c195.5-61.1,407.9-67.4,611.5-68.3
			C698.5-201.1,1098-246.4,1100.3-133.6z"/>
		<path class="st1" d="M467.4-259.3c73.7,41,109.8,125.5,96.4,208.9C549,42.5,463,108.9,474.9,210.7
			c10.6,90.5,93.2,157.3,100.7,253.4c7.1,91.7-41.4,172.6-33,262.3c7,74.2,81.4,93,117.4,153.2c33,55,21.5,99.2-0.2,154.9
			c-17.3,44.5-36.6,71.8-10.2,112.4c35.4,54.7,94,65.3,107,134c11,58.3-5.4,170.8-65.7,195c-59.2,23.7-137.5,6.2-197.2-3.2
			c-102.3-16.2-204.1-25.3-307-35.5c-124.3-12.3-306-21.9-385.6-130.4c-73.5-100.1-76-247-79-366.6c-3.2-126.3,11-244.9,24-369.8
			c13.5-130,15.2-260.9,42.6-389.2c28-131.3,34.5-318,152.9-407.5c85.5-64.6,208.2-49.9,309-49.7C327-276,387.6-280.3,467.4-259.3z"
			/>
		<path class="st2" d="M626.7-255.1c-0.2,79.8,7.5,135.2-46.7,200.5c-52.5,63.3-141.4,88-189.5,149.5c-51.6,66-44,182.1-49.6,258.5
			c-7.1,96.7-37.8,165.4-107.2,233.1c-47.6,46.4-91.2,79.4-97.7,150.2c-6.6,71.9,31,127.5,47.8,194.6c21.5,86-8,135.5-59.5,200.4
			c-34.2,43-59.6,82.2-59.4,139c0.2,45.1,16.1,99.2-0.2,143c-13.2,35.5-58.3,72-88.9,92.6c-154.6,104.2-225.7-270.9-235.9-361.4
			c-35.3-314-56.2-622.7-56.2-938.6c0-131.1-23.9-323.7,95.4-417.9c115-90.9,294.2-129.9,436.4-137c92.4-4.6,188.1-14.8,275.7,20.4
			c29.4,11.8,52.9,24.5,73.1,47.7C579-263.5,584.3-238.1,626.7-255.1z"/>
		<g class="st3">
			<path class="st4" d="M2061-201.7v-9.3c-52.2,11.1-100.8,42.1-133,93.2c-19.7-2.8-39.7-2.9-60.6,0.3
				c-82.1-130.8-271.9-131.1-354.2-0.3c-19.7-2.8-39.7-2.9-60.6,0.3c-82.1-130.8-271.9-131.1-354.2-0.3c-19.7-2.8-39.7-2.9-60.6,0.3
				c-82.1-130.8-271.9-131.1-354.2-0.3c-19.7-2.8-39.7-2.9-60.6,0.3c-82.1-130.8-271.9-131.1-354.2-0.3c-19.7-2.8-39.7-2.9-60.6,0.3
				C126-248.3-63.8-248.5-146.1-117.8c-14.2-2-28.6-2.6-43.4-1.6v9.1c12.2-0.8,25-0.6,38.3,1C-52.7-97.3,14.2-4.5-4.9-1.2
				C-46.3,6-16.6,12.8-53.2-26c-37.1-39.3-87.5-56.4-136.3-52.2v9c48.6-4.3,99,13.6,134.5,54.6c22.6,26.1,16.2,21.6,2,27.9
				c-24.6,10.8-7.1,10.5-34.1-15.6c-28.6-27.6-66.3-39-102.4-35v9.3c37.5-4.5,76.9,8.9,103.9,40.4c15.2,17.7,11.1,8.3-16.5,31.2
				c-19.9-31.8-54.9-44.8-87.4-39.4v9.2c23-4.3,47.7,1.9,66.4,19.1c22.1,20.3,13.2,13.8-9.4,42.1c-8.9-26-35.3-35.4-57-28.5V56
				c9-4,20-4.7,31.1,1.2c10.4,5.5,23.3,19.7,14.5,33c-4.4,6.8,2.9,1.4-31.4,1.4c-5.8,0-10.4,0.2-14.2,0.4v9.2
				C-64,92,14.4,206.9-4.9,210.2c-36.7,6.4-17.3,12.4-39.9-15.4c-36.9-45.5-91.7-66.1-144.7-61.6v9.2c49.2-4.3,100.3,14,135.6,55.7
				c21,24.8,15.4,20.3,1,26.7c-29.8,13.1-2,6.6-47.4-26.7c-26.8-19.6-58.6-27.1-89.2-23.7v9c37.4-4.5,76.7,8.8,103.9,40.5
				c15.2,17.7,11.1,8.3-16.5,31.2c-19.8-31.7-54.9-44.8-87.4-39.4v9.2c23-4.3,47.7,1.9,66.4,19.1c22.1,20.4,13.2,13.8-9.4,42.1
				c-9-26.1-35.4-35.4-57-28.4v9.9c9-4,20-4.7,31.1,1.2c10.4,5.5,23.3,19.7,14.5,33c-4.4,6.7,2.7,1.4-31.4,1.4
				c-5.8,0-10.4,0.2-14.2,0.4v9.4c69.7-4.8,141.6,26.3,183.8,93.5c10.8,17.2,9.2,14,0.9,15.4c-36.7,6.4-17.3,12.4-39.9-15.4
				c-37-45.6-91.7-66.1-144.7-61.6v9.3c6.8-0.6,13.8-0.9,21-0.5c83.1,3.6,137.7,74,124,79.3c-42.5,16.5-6.7,15.8-51.6-20
				c-27.6-22-61.3-30.5-93.4-26.8v9.1c4.1-0.5,8.3-0.9,12.6-0.9c58.7-0.7,108.9,48.8,95.2,57.7c-40.6,26.1-2.1,10.4-54.2-16.4
				c-16.9-8.7-35.6-11.3-53.5-8.3v9.2c45-7.7,88.6,28.2,74.2,42.3c-6.2,6.1-11.8,12.3-17.2,19.1c-9-26.2-35.4-35.3-57-28.4v9.6
				c27.4-11.8,57.9,15.8,45.6,34.5c-4.4,6.8,2.8,1.4-31.4,1.4c-5.8,0-10.4,0.2-14.2,0.4v9.4c69.7-4.9,141.6,26.1,183.8,93.5
				c10.8,17.3,9.3,14,0.9,15.4c-36.7,6.4-17.3,12.4-39.9-15.4c-37.3-45.8-91.9-66.1-144.7-61.6v9.3c6.8-0.6,13.8-0.9,21-0.5
				c83.2,3.6,137.6,74,124,79.3c-42.5,16.5-6.7,15.8-51.6-20c-27.5-22-61.2-30.5-93.4-26.8v9.1c4.1-0.5,8.3-0.9,12.6-0.9
				c60.8-0.8,108.2,49.3,95.2,57.7c-40.7,26.1-2.1,10.4-54.2-16.4c-17.1-8.8-35.8-11.3-53.5-8.3v9.2c45-7.7,88.6,28.2,74.2,42.3
				c-6.3,6.1-11.9,12.4-17.2,19.1c-9-26.1-35.4-35.3-57-28.4v9.4c5.6-2.4,12.4-3.5,20.3-2.1c17.4,3,35.3,21.6,25.3,36.8
				c-4.9,7.5-10.4-1.1-45.6,1.7v9.4c70.3-5,142.9,26.6,185,95.4c9.8,16.1,8.7,11.3-9.3,15.2c-23.2,5.1-11.2,8.5-28.6-13.9
				c-37-47.8-93-69.3-147.1-64.7v9c49.4-4.3,100.5,14.3,135.6,55.7c21,24.8,15.4,20.3,1,26.7c-24.6,10.8-7.1,10.5-34.1-15.6
				c-28.3-27.3-66.1-38.9-102.4-34.8v9.3c33.3-5.4,71.4,2.4,103.9,40.3c15.1,17.6,11.2,8.2-16.5,31.2c-19-30.4-53.9-45-87.4-39.5
				v9.2c29.9-5.5,62.6,6.5,80.4,36.3c-52.2,47.1-2.1-0.6-62.7-5.5c-6.7-0.5-12.7,0.5-17.8,2.1v9.3c5.6-2.4,12.4-3.5,20.3-2.1
				c17.4,3,35.3,21.6,25.3,36.8c-5.1,7.8-8.8-1.4-45.6,1.7v9.4c70.4-4.9,143,26.7,185,95.4c9.8,16.1,8.7,11.3-9.3,15.2
				c-23.2,5.1-11.2,8.5-28.6-13.9c-36.8-47.6-92.8-69.2-147.1-64.7v9.1c49.4-4.3,100.5,14.2,135.6,55.7c21,24.8,15.4,20.3,1,26.7
				c-24.6,10.8-7.1,10.5-34.1-15.6c-28.4-27.4-66.1-38.9-102.4-34.8v9.2c33.3-5.4,71.3,2.3,103.9,40.3c15.2,17.7,11.1,8.3-16.5,31.2
				c-19-30.4-53.9-45-87.4-39.5v9.2c29.9-5.5,62.6,6.5,80.4,36.3c-52.2,47.2-1.8-0.7-62.7-5.5c-6.7-0.5-12.7,0.5-17.8,2.1v9.3
				c5.6-2.4,12.4-3.5,20.3-2.1c17.4,3,35.3,21.6,25.3,36.8c-5.1,7.8-8.8-1.4-45.6,1.7v10.8c83.3-6.4,170.2,35.3,203.6,134.1
				c41.2,122-41.8,172.7-11.1,172.7c15.3-24.9,25.4-53.3,29-83.6c3.7,30.3,13.8,58.7,29,83.6c34.7,0-55.2-45.9-10.5-174.3
				c73.6-212,388.9-158.9,388.9,65.4c0,90-48.6,108.9-21.6,108.9c15.3-24.9,25.4-53.3,29-83.6c3.7,30.3,13.8,58.7,29,83.6
				c31.5,0-21.6-11.2-21.6-108.9c0-225.3,317.8-275.6,389.4-63.9c41.2,122-41.8,172.7-11.1,172.7c15.3-24.9,25.4-53.3,29-83.6
				c3.7,30.3,13.8,58.7,29,83.6c34.7,0-55.2-45.9-10.5-174.3c74.1-213.2,388.9-157.6,388.9,65.4c0,90-48.6,108.9-21.6,108.9
				c15.3-24.9,25.4-53.3,29-83.6c3.7,30.3,13.8,58.7,29,83.6c31.5,0-21.6-11.2-21.6-108.9c0-225.5,317.5-276.7,389.4-63.9
				c41.3,122-41.8,172.7-11.1,172.7c15.3-24.9,25.4-53.3,29-83.6c3.7,30.3,13.8,58.7,29,83.6c34.7,0-55.2-46-10.5-174.3
				c58.2-167.4,265.3-168.8,351.2-53.4v-13c-2.3-2.7-5.3-6.1-9.2-10.3c-5-5.4-0.1-12,9.2-17.8v-10.1c-3.8,2.3-7.6,4.8-11.1,7.7
				c-14.7,12.2-1.5,12.4-30.6-8.3c-5.6-3.9,12.3-23.3,41.7-34.7v-9.9c-10.8,4-21.2,9.6-31,16.7c-34.8,25.5-7.4,24.7-47.4,7.1
				c-6.8-3,25.6-41.6,78.4-57.1v-9.5c-32.2,8.7-62.3,27-85.5,54.9c-6.6,8-2.6,7.5-11.4,4.6c-26.4-8.7-35.7,0.1-7.9-30.9
				c29.2-32.5,66-52.8,104.8-61.5v-9.4c-0.3,0.1-0.5,0.1-0.7,0.1c-23.2,5.1-11.2,8.6-28.6-13.9c-66.1-85.6-194.9-87.5-263.4-3.2
				c-21.8,26.9-6.1,23.1-33.4,17.1c-16.5-3.6-16.5,0.8-7.7-13.9c74.8-124.6,251.2-129.6,333.8-14.2v-15.2
				c-3.1-3.7-7.4-8.7-13.8-15.1c4.2-4.8,8.9-8.8,13.8-12.3v-10.8c-3.8,2.3-7.6,4.8-11.1,7.7c-14.7,12.2-1.5,12.4-30.6-8.3
				c-5.6-3.9,12.3-23.3,41.7-34.7v-9.9c-10.8,4-21.2,9.6-31,16.7c-34.8,25.5-7.4,24.7-47.4,7.1c-6.8-3,25.6-41.6,78.4-57.1v-9.5
				c-32.3,8.7-62.3,27-85.5,54.9c-6.6,8-2.6,7.5-11.4,4.6c-26.5-8.7-35.7,0.1-7.9-30.9c29.2-32.5,66-52.8,104.8-61.5v-9.4
				c-0.3,0.1-0.5,0.1-0.7,0.1c-23.2,5.1-11.2,8.6-28.6-13.9c-66.2-85.6-194.9-87.6-263.4-3.2c-21.8,27-6,23.1-33.4,17.1
				c-16.5-3.6-16.5,0.8-7.7-13.9c75-125,251.4-129.2,333.8-14.2v-15.1c-2.3-2.7-5.3-6.1-9.2-10.3c-5-5.4-0.1-12,9.2-17.8v-10.1
				c-3.8,2.3-7.6,4.8-11.1,7.7c-14.7,12.2-1.5,12.4-30.6-8.3c-5.6-3.9,12.3-23.3,41.7-34.7v-9.9c-10.8,4-21.2,9.6-31,16.7
				c-34.8,25.5-7.4,24.7-47.4,7.1c-6.8-3,25.6-41.6,78.4-57.1V677c-32.3,8.7-62.3,27-85.5,54.9c-6.6,8-2.6,7.5-11.4,4.6
				c-26.4-8.7-35.7,0.1-7.9-30.9c29.2-32.5,66-52.8,104.8-61.5v-9.4c-0.3,0.1-0.5,0.1-0.7,0.1c-23.2,5.1-11.2,8.6-28.6-13.9
				c-66.3-85.8-195-87.4-263.4-3.2c-21.8,26.9-6.1,23.1-33.4,17.1c-16.5-3.6-16.5,0.8-7.7-13.9c74.9-124.8,251.4-129.4,333.8-14.2
				v-15.1c-2.3-2.7-5.3-6.1-9.2-10.3c-5-5.4-0.1-12,9.2-17.8v-10.1c-3.8,2.3-7.6,4.8-11.1,7.7c-14.7,12.2-1.5,12.4-30.6-8.3
				c-5.6-3.9,12.3-23.3,41.7-34.7v-9.9c-10.8,4-21.2,9.6-31,16.7c-34.6,25.4-7.4,24.7-47.4,7.1c-7.2-3.2,25.8-41.5,78.4-57.1v-9.4
				c-34.7,9.4-66.9,29.9-90.6,61.6c-35.9-13.2-37.2-3.5-26.5-17.9c30.3-41.1,72.3-66.7,117.1-76.7v-9.3c-25.5,5.5-11.1,8.4-31.7-17
				c-67.8-83.5-194.9-83.2-262.3,1.7c-21.8,27.5-2.8,20.3-41,13.7c-13-2.3,40.1-85.4,130.4-105c101-21.9,177.2,39.5,204.6,77.5v-14
				c-2.3-2.7-5.3-6.1-9.2-10.3c-5-5.4-0.1-12,9.2-17.8V342c-3.8,2.3-7.6,4.8-11.1,7.7c-14.7,12.2-1.5,12.4-30.6-8.3
				c-5.6-3.9,12.3-23.2,41.7-34.7v-9.8c-12.9,4.7-25.1,11.5-36.1,20.5c-28,22.7-2.9,19.6-45.7,1.8c21.9-28.4,50.8-46.9,81.8-55.8
				v-9.3c-34.6,9.4-66.8,29.9-90.6,61.6c-35.9-13.2-37.2-3.5-26.5-17.9c30.2-41,72.2-66.7,117.1-76.7v-9.3
				c-25.5,5.5-11.1,8.4-31.7-17c-67.8-83.5-194.9-83.2-262.3,1.7c-21.8,27.5-2.8,20.3-41,13.7c-12.5-2.2,39.5-85.3,130.4-105
				c101.4-22,177.3,39.4,204.6,77.4v-13.9c-2.3-2.7-5.3-6.1-9.2-10.3c-5.1-5.5,0-12,9.2-17.7v-10.2c-34.4,20.3-4.1,24.8-45.3-3
				c12.9-14.9,28.5-25.6,45.3-32.3v-9.6c-12.9,4.7-25.1,11.5-36.1,20.5c-27.9,22.7-3.1,19.6-45.7,1.8c21.9-28.4,50.8-46.9,81.8-55.8
				v-9.3c-34.6,9.4-66.8,29.9-90.6,61.6c-35.9-13.2-37.2-3.5-26.5-17.9c30.2-41,72.2-66.7,117.1-76.7V0.4
				c-29.4,6.4-6.2,9.6-40.1-26.4c-67.7-71.8-180.4-69.9-246.1,2c-34.4,37.7-5.3,30.3-48.8,22.8c-14-2.4,61.9-124.4,197-108.1
				c65.3,7.9,116.4,51.1,138.1,80.4v-13.3c-4.4-5.4-8.9-10.7-13.8-15.6c4.2-4.8,8.9-8.8,13.8-12.3v-10.8
				c-7.4,4.4-14.3,9.9-20.4,16.8c-7.8-7.2-16.1-13.9-24.9-19.8c12.9-14.9,28.5-25.6,45.3-32.4v-9.7c-19.8,7.3-38.1,19.7-53,37.2
				c-9.2-5.6-18.8-10.6-28.8-14.8c21.9-28.3,50.7-46.9,81.8-55.9v-9.4c-34.5,9.4-66.7,29.9-90.6,61.8c-10.5-3.9-21.5-6.8-32.7-9
				C1968.2-162.5,2013-191,2061-201.7z M1508.1-109.3c98.5,11.9,165.5,104.7,146.3,108.1c-41.4,7.2-11.6,14-48.3-24.8
				c-68-72-180.6-69.6-246.1,2c-35.4,38.7-4.9,30.4-48.8,22.8C1297.1-3.6,1373.1-125.6,1508.1-109.3z M1572.2,1055
				c-44.9-43.3-113.7-47.4-163.2-11.1c-48.2,35.3-16.1,41.5-49.7,26.7c-12.1-5.3-18.1-1,2.2-25.4c63.5-76.6,180.4-76.5,243.9-1.3
				c21,24.8,15.4,20.3,1,26.7C1581.6,1081.4,1599.2,1081.1,1572.2,1055z M1557.1,1100.8c-24.3-38.9-74.8-52.3-115-29.9
				c-52.2,29.1-10.5,43-54,15c-18.2-11.7,101.9-114,185.6-16.3C1588.8,1087.4,1584.7,1078,1557.1,1100.8z M1616.9,1043.9
				c-66.6-86.1-195.3-87.1-263.4-3.2c-21.9,26.9-6,23.1-33.4,17.1c-16.5-3.6-16.5,0.8-7.7-13.9c77.3-128.9,263.7-130,342.4-1.3
				c9.9,16.1,8.6,11.3-9.3,15.2C1622.3,1062.8,1634.3,1066.3,1616.9,1043.9z M1157.4,1055c-44.6-43-113.4-47.6-163.2-11.1
				c-48.2,35.3-16.1,41.5-49.7,26.7c-12.1-5.3-18-1,2.2-25.4c63.3-76.5,180.1-76.6,243.9-1.3c21,24.8,15.4,20.3,1,26.7
				C1166.8,1081.4,1184.4,1081,1157.4,1055z M1142.3,1100.8c-24.4-39-74.9-52.2-115-29.9c-52.3,29.1-10.5,43-54,15
				c-18.2-11.7,101.9-114,185.6-16.3C1174,1087.4,1169.9,1078,1142.3,1100.8z M1202.1,1043.9c-66.2-85.6-194.9-87.5-263.4-3.2
				c-21.8,26.9-6,23.1-33.4,17.1c-16.5-3.6-16.5,0.8-7.7-13.9c77.3-128.9,263.7-130.1,342.4-1.3c9.8,16.1,8.7,11.3-9.3,15.2
				C1207.4,1062.8,1219.4,1066.3,1202.1,1043.9z M742.5,1055c-45.1-43.5-114-47.2-163.2-11.1c-48.2,35.3-16.1,41.5-49.7,26.7
				c-12.1-5.3-18-1,2.2-25.4c63.4-76.7,180.3-76.5,243.9-1.3c21,24.8,15.4,20.3,1,26.7C752,1081.4,769.6,1081,742.5,1055z
				 M727.5,1100.8c-24.4-39-74.9-52.2-115-29.9c-52.3,29.1-10.4,43.1-54,15c-18.2-11.7,101.8-114,185.6-16.3
				C759.2,1087.4,755.1,1078,727.5,1100.8z M787.2,1043.9c-66.3-85.8-195.1-87.4-263.4-3.2c-21.8,26.9-6,23.1-33.4,17.1
				c-16.5-3.6-16.5,0.8-7.7-13.9c77.3-128.9,263.7-130.1,342.4-1.3c9.8,16.1,8.7,11.3-9.3,15.2
				C792.6,1062.8,804.6,1066.3,787.2,1043.9z M327.7,1055c-44.8-43.2-113.7-47.4-163.2-11.1c-48.2,35.3-16.1,41.5-49.7,26.7
				c-12.1-5.3-18-1,2.2-25.4c63.3-76.5,180.2-76.6,243.9-1.3c21,24.8,15.4,20.3,1,26.7C337.2,1081.4,354.7,1081,327.7,1055z
				 M312.6,1100.8c-24.4-39.1-74.9-52.2-115-29.9c-52.3,29.1-10.5,43-54,15c-18.1-11.7,101.9-113.9,185.6-16.3
				C344.3,1087.4,340.3,1078,312.6,1100.8z M372.4,1043.9c-66.3-85.8-195.1-87.4-263.4-3.2c-21.8,26.9-6,23.1-33.4,17.1
				c-16.5-3.6-16.5,0.8-7.7-13.9c77-128.5,263.5-130.4,342.4-1.3c9.8,16.1,8.7,11.3-9.3,15.2
				C377.8,1062.8,389.8,1066.3,372.4,1043.9z M535.9-82.9c-8.8,6-17,12.7-24.7,20c-34.1-39.6-94.7-40.4-129.8-1.2
				c-7.8-7.2-16.1-13.9-24.9-19.8C404.3-139.1,489-138.3,535.9-82.9z M348.7-88.9c-9.2-5.6-18.8-10.6-28.8-14.8
				c64-82.9,188.3-82.9,252.2,0.8c-9.9,4.3-19.5,9.3-28.5,15C493-148.7,400.2-149.6,348.7-88.9z M504.7-56.6
				c-7.6,7.8-14.6,16.2-20.9,25.1c-17.5-26.8-56.1-27.8-74.9-1.7c-6.4-8.8-13.3-17.1-20.9-24.7C419.2-93.2,474.1-92.7,504.7-56.6z
				 M478-23c-4.1,6.4-7.8,12.9-11.2,19.7C411.4-8.9,436.7,9.1,414.4-25C429.1-50.1,465-48.8,478-23z M608.9,89.3
				c7.7,10.9,6.9,2.5-28.1,15.7c-67.2-90.8-202.1-90.9-269.6-0.7c-35.9-13.2-37.2-3.5-26.5-17.9C365.5-23.4,529.6-22.4,608.9,89.3z
				 M950.7-82.9c-8.8,6-17,12.7-24.7,20c-34.1-39.6-94.7-40.4-129.8-1.2c-7.8-7.2-16.1-13.9-24.9-19.8
				C819.1-139.1,903.8-138.3,950.7-82.9z M763.6-88.9c-9.2-5.6-18.8-10.6-28.8-14.8c64-82.9,188.3-82.9,252.2,0.8
				c-9.9,4.3-19.5,9.3-28.5,15C907.8-148.7,815-149.6,763.6-88.9z M919.5-56.6c-7.6,7.8-14.6,16.2-20.9,25.1
				c-17.5-26.8-56.1-27.8-74.9-1.7c-6.4-8.8-13.3-17.1-20.9-24.7C834-93.2,888.9-92.7,919.5-56.6z M892.9-23
				c-4.1,6.4-7.8,12.9-11.2,19.7C826.2-8.9,851.6,9.1,829.3-25C844-50.1,879.8-48.8,892.9-23z M1023.7,89.3
				c7.7,10.9,7,2.4-28.1,15.7c-67.3-90.8-202.2-90.9-269.6-0.7c-35.9-13.2-37.2-3.5-26.5-17.9C780.2-23.2,944.3-22.6,1023.7,89.3z
				 M1365.5-82.9c-8.8,6-17,12.7-24.7,20c-34.1-39.6-94.7-40.4-129.8-1.2c-7.8-7.2-16.1-13.9-24.9-19.8
				C1233.9-139.1,1318.7-138.3,1365.5-82.9z M1178.4-88.9c-9.2-5.6-18.8-10.6-28.8-14.8c64-82.9,188.3-82.9,252.2,0.8
				c-9.9,4.3-19.5,9.3-28.5,15C1322.7-148.7,1229.9-149.6,1178.4-88.9z M1334.3-56.6c-7.6,7.8-14.6,16.2-20.9,25.1
				c-17.5-26.8-56.1-27.8-74.9-1.7c-6.4-8.8-13.3-17.1-20.9-24.7C1248.9-93.2,1303.8-92.7,1334.3-56.6z M1307.7-23
				c-4.1,6.4-7.8,12.9-11.2,19.7c-55.5-5.6-30.1,12.3-52.4-21.7C1258.8-50.1,1294.7-48.8,1307.7-23z M1438.5,89.3
				c7.7,10.9,6.9,2.5-28.1,15.7c-67.4-91.1-202.3-90.6-269.6-0.7c-35.9-13.2-37.2-3.5-26.5-17.9
				C1195.2-23.5,1359.4-22.3,1438.5,89.3z M1333.9,987.2c-32.1-29.8-80.6-30.5-113.6-3.2c-14.7,12.2-1.5,12.4-30.6-8.3
				c-10.5-7.4,61.9-69.1,138.3-31c10.5,5.2,41.6,26.7,35.5,31C1334.4,996.3,1345.2,997.7,1333.9,987.2z M1334.3,1000.7
				c-39.1,40.1-3.9,24.1-41.1,8.1c-10.9-4.7-22-4.8-33.1-0.9c-39.8,14.2-2.9,31.7-42.6-8.5C1249.1,963.8,1304.2,965,1334.3,1000.7z
				 M1200.4,947.9c-34.8,25.5-7.4,24.7-47.4,7.1c-8.5-3.7,44.6-63.6,122.3-63.6c80.2,0,129,61.7,124.7,63.6
				c-31.5,13.9-24.1,17.3-30.2,10.6C1326.6,917.5,1253.7,908.8,1200.4,947.9z M1145.9,943.3c-6.7,8-2.6,7.5-11.4,4.6
				c-26.4-8.7-35.7,0.1-7.9-30.9c87.9-97.8,244.2-85.8,316.2,24.5c-35.5,7.1-30,12.4-34.6,6.5C1341.6,861.9,1214,861.2,1145.9,943.3
				z M1072.7,889.9c-7.5-0.6-14.2,0.7-19.6,2.7c-49.6,18.9-0.6,50.6-51,4.2c29.4-51.4,102.9-52.2,133.3-1.4
				C1083.2,942.5,1133.3,894.8,1072.7,889.9z M1100.6,936c-5.8,8.9-9.7-4.1-62.1,3.6c-12.7,1.9-1.6-47,36.7-40.4
				C1092.6,902.2,1110.5,920.9,1100.6,936z M919.1,987.2c-31.8-29.5-80.3-30.8-113.6-3.2c-14.7,12.2-1.5,12.4-30.7-8.3
				c-10.5-7.4,62-69.1,138.3-31c10.4,5.2,41.6,26.7,35.5,31C919.6,996.3,930.4,997.7,919.1,987.2z M919.5,1000.7
				c-39.1,40.1-3.9,24.1-41.1,8.1c-11.1-4.8-22.2-4.8-33.1-0.9c-39.8,14.2-2.9,31.7-42.6-8.5C834.3,963.7,889.4,965.1,919.5,1000.7z
				 M785.5,947.9c-34.8,25.5-7.4,24.7-47.4,7.1c-8.5-3.7,44.6-63.6,122.3-63.6c80.3,0,129.1,61.7,124.7,63.6
				c-31.7,14-24.1,17.4-30.2,10.6C911.9,917.6,839,908.7,785.5,947.9z M731.1,943.3c-6.7,8-2.6,7.5-11.4,4.6
				c-25.9-8.6-35.7,0-7.9-30.9c87.7-97.6,244.1-86,316.2,24.5c-35.6,7.1-30,12.4-34.6,6.5C926.4,861.4,798.8,861.7,731.1,943.3z
				 M657.9,889.9c-7.5-0.6-14.2,0.7-19.6,2.7c-49.5,18.8-0.7,50.5-51,4.2c29.3-51.3,102.8-52.2,133.3-1.4
				C668.3,942.5,718.5,894.8,657.9,889.9z M685.7,936c-5.8,8.8-9.6-4.1-62.1,3.6c-12.7,1.8-1.6-47,36.8-40.4
				C677.8,902.2,695.7,920.9,685.7,936z M504.2,987.2c-31.8-29.5-80.3-30.8-113.6-3.2c-14.7,12.2-1.5,12.4-30.7-8.3
				c-10.5-7.4,61.9-69.1,138.3-31c10.4,5.2,41.6,26.7,35.5,31C504.7,996.3,515.6,997.7,504.2,987.2z M504.7,1000.7
				c-39.1,40.1-3.9,24.1-41.1,8.1c-11.1-4.8-22.2-4.8-33.1-0.9c-39.8,14.2-2.9,31.7-42.6-8.5C419.5,963.7,474.6,965.1,504.7,1000.7z
				 M370.7,947.9c-34.8,25.5-7.4,24.7-47.4,7.1c-8.5-3.7,44.6-63.6,122.3-63.6c80,0,129.2,61.6,124.7,63.6
				c-31.7,13.9-24.1,17.3-30.2,10.6C497,917.5,424,908.8,370.7,947.9z M316.3,943.3c-6.7,8-2.6,7.5-11.4,4.6
				c-25.9-8.6-35.7,0-7.9-30.9c87.9-97.8,244.2-85.8,316.2,24.5c-35.6,7.1-30,12.4-34.6,6.5C512,861.9,384.3,861.2,316.3,943.3z
				 M599,35.4c29.3-30.1,76.7-31.3,107.6-3c22.1,20.4,13.2,13.8-9.4,42.1c-14.4-42-74-40.5-86.3,2.2C587.4,46.5,580.3,54.6,599,35.4
				z M580.3,44.9c-28-23.6-30.2-14.2-18.8-28.7c46.3-58.7,134.1-60.1,182.4-3.8c15.2,17.7,11.1,8.3-16.5,31.2
				C693.3-11.1,613.6-10.5,580.3,44.9z M671.2,57.2c10.4,5.5,23.3,19.7,14.5,33c-4.4,6.7,2.7,1.4-31.4,1.4c-36.4,0-29,6-33.8-1.4
				C610.9,75.6,639.9,40.6,671.2,57.2z M824.7,210.2c-36.7,6.4-17.3,12.4-39.9-15.4c-67.7-83.5-195.2-83.1-262.3,1.7
				c-21.8,27.5-2.9,20.3-41,13.7c-12.9-2.2,40.2-85.4,130.4-105C753.8,74.5,845.5,206.6,824.7,210.2z M1013.8,35.4
				c29-29.8,76.5-31.6,107.6-3c22.1,20.3,13.2,13.8-9.4,42.1c-14.4-41.9-74-40.5-86.3,2.2C1002.2,46.5,995.1,54.6,1013.8,35.4z
				 M995.1,44.9c-28-23.6-30.2-14.2-18.8-28.7c46.3-58.7,134.1-60.1,182.4-3.8c15.2,17.7,11.1,8.3-16.5,31.2
				C1108-11.3,1028.3-10.3,995.1,44.9z M1086,57.2c10.4,5.5,23.3,19.7,14.5,33c-4.4,6.8,2.9,1.4-31.4,1.4c-36.5,0-29,6-33.8-1.4
				C1025.5,75.2,1055.1,40.8,1086,57.2z M1239.6,210.2c-36.7,6.4-17.3,12.4-39.9-15.4c-67.6-83.2-194.9-83.4-262.3,1.7
				c-21.8,27.5-2.9,20.3-41,13.7c-13-2.3,40.1-85.4,130.4-105C1168.5,74.5,1260.4,206.6,1239.6,210.2z M1157.4,843.5
				c-45.1-43.5-114-47.2-163.2-11.1c-48.2,35.3-16.1,41.5-49.7,26.7c-12.1-5.3-18-1,2.2-25.4c63.1-76.4,179.9-76.8,243.9-1.3
				c21,24.8,15.4,20.3,1,26.7C1166.8,869.9,1184.4,869.6,1157.4,843.5z M1142.3,889.4c-24.4-39-74.9-52.2-115-29.9
				c-54.8,30.5-9.2,43.9-54,15c-18.2-11.7,101.9-114,185.6-16.3C1173.9,875.9,1170,866.5,1142.3,889.4z M1202.1,832.4
				c-66.7-86.3-195.5-86.9-263.4-3.2c-21.8,26.9-6,23.1-33.4,17.1c-16.5-3.6-16.5,0.8-7.7-13.9c76.9-128.3,263.3-130.6,342.4-1.3
				c9.8,16.1,8.7,11.3-9.3,15.2C1207.4,851.4,1219.4,854.9,1202.1,832.4z M742.5,843.5c-45.4-43.8-114.4-46.9-163.2-11.1
				c-48.2,35.3-16.1,41.5-49.7,26.7c-12.1-5.3-18-1,2.2-25.4c62.9-76.1,179.9-77,243.9-1.3c21,24.8,15.4,20.3,1,26.7
				C752,869.9,769.6,869.6,742.5,843.5z M727.5,889.4c-24.4-39-74.9-52.2-115-29.9c-53.6,29.9-9.8,43.5-54,15
				c-18.2-11.7,101.9-113.9,185.6-16.3C759.2,876,755.1,866.5,727.5,889.4z M787.2,832.4c-66.3-85.8-195-87.4-263.4-3.2
				c-21.8,26.9-6,23.1-33.4,17.1c-16.5-3.6-16.5,0.8-7.7-13.9c77.5-129.3,263.9-129.7,342.4-1.3c9.8,16.1,8.7,11.3-9.3,15.2
				C792.6,851.4,804.6,854.9,787.2,832.4z M860.5,127.4c31.1,0,62.9,23.1,55.5,31c-29.1,31.3-7.6,23.1-31.2,8
				c-9.3-5.9-21.7-8.8-34-6.1c-46.2,10.1-8,36.3-43.5-1.9C795.6,145.9,837.8,127.4,860.5,127.4z M771.3,127.5
				c47.7-55,132.7-54.1,179.4,1c-39.7,27.3-11.8,23.8-44.2,3.3c-26.6-16.8-60.9-18.2-89.3-1.7C781.7,150.8,812.7,155.5,771.3,127.5z
				 M885,178c12.2,11.2,6.5,10.5-3.3,30.2c-55.9-5.6-30,12.5-52.4-21.7C841.5,165.6,868.4,162.8,885,178z M1023.7,300.8
				c7.7,10.9,7,2.4-28.1,15.7c-67.4-91-202.3-90.7-269.6-0.7c-35.9-13.2-37.2-3.5-26.5-17.9C780.2,188.2,944.3,188.8,1023.7,300.8z
				 M919.1,775.8c-31.8-29.5-80.3-30.8-113.6-3.2c-14.7,12.2-1.5,12.4-30.7-8.3c-10.5-7.4,62-69.1,138.3-31
				c10.4,5.2,41.6,26.7,35.5,31C919.6,784.9,930.4,786.3,919.1,775.8z M919.5,789.2c-39.1,40.1-3.9,24.1-41.1,8.1
				c-11.1-4.8-22.2-4.8-33.1-0.9c-39.8,14.2-2.9,31.7-42.6-8.5C834.3,752.2,889.4,753.7,919.5,789.2z M785.5,736.5
				c-34.8,25.5-7.4,24.7-47.4,7.1c-8.4-3.7,44.6-63.6,122.3-63.6c80.1,0,129.2,61.6,124.7,63.6c-31.5,13.9-24.1,17.3-30.2,10.6
				C911.8,706,838.9,697.4,785.5,736.5z M731.1,731.9c-6.7,8-2.6,7.5-11.4,4.6c-26.2-8.6-35.7,0-7.9-30.9
				c87.4-97.3,243.9-86.4,316.2,24.5c-36.4,7.3-29.9,12.5-34.6,6.5C926.8,650.5,799.2,649.8,731.1,731.9z M860.5,630
				c-27.1,0-13.1,7.1-31.3-20.7c14.8-25.2,50.7-23.5,63.6,2C876.2,637.4,890,630,860.5,630z M878.4,585.9
				c-11.1-4.8-22.2-4.8-33.1-0.9c-39.8,14.2-2.9,31.7-42.6-8.5c31.6-35.7,86.7-34.2,116.8,1.3C880.4,617.9,915.6,601.9,878.4,585.9z
				 M919.1,564.3c-31.8-29.4-80.3-30.8-113.6-3.2c-14.7,12.2-1.5,12.4-30.7-8.3c-10.5-7.4,61.9-69.1,138.3-31
				c10.4,5.2,41.6,26.7,35.5,31C919.6,573.5,930.4,574.8,919.1,564.3z M943.4,531.2c-47.1-40.5-115.8-40.7-162.9-2.4
				c-27.9,22.7-3,19.6-45.7,1.8c64.4-83.3,188.8-82.2,252.2,0.8C946.4,548.8,967.7,552.1,943.4,531.2z M726,527.2
				c-35.9-13.1-37.2-3.5-26.5-17.9c80.5-109.4,244.7-109.2,324.3,2.9c7.7,10.8,7,2.4-28.1,15.7C928.5,437.2,793.6,436.8,726,527.2z
				 M829.3,397.9c12.2-20.8,39.1-23.7,55.7-8.5c12.2,11.2,6.5,10.5-3.3,30.2C825.8,414,851.7,432.2,829.3,397.9z M884.9,377.9
				c-9.3-5.9-21.7-8.8-34-6.1c-46.2,10.1-8,36.3-43.5-1.9c-11.7-12.6,30.5-31,53.2-31c28.7,0,63.7,22.2,55.5,31
				C887,401.2,908.5,393,884.9,377.9z M906.5,343.2c-26.6-16.8-60.9-18.2-89.3-1.7c-35.5,20.7-4.6,25.4-46-2.6
				c47.7-55,132.7-54.1,179.4,1C911,367.3,938.9,363.7,906.5,343.2z M943.4,319.8c-47.1-40.5-115.8-40.7-162.9-2.4
				c-27.9,22.7-3,19.6-45.7,1.8c64.4-83.3,188.9-82.2,252.2,0.8C946.4,337.3,967.6,340.7,943.4,319.8z M776.6,224.7
				c-29.8,13.1-2,6.6-47.4-26.7c-52.1-38.2-122.4-30.6-165.7,13.5c-28.4,28.9-2,24.4-46.1,8.3c56.6-95.5,188.4-104.2,258.1-21.8
				C796.7,222.9,791,218.4,776.6,224.7z M561.5,227.7c46.2-58.6,133.9-60.4,182.4-3.8c15.2,17.7,11.1,8.3-16.5,31.2
				c-34.2-54.7-113.9-54.1-147.2,1.3C552.3,232.8,550.1,242.2,561.5,227.7z M599,246.8c29.3-30.1,76.7-31.3,107.6-3
				c22.1,20.4,13.2,13.8-9.4,42.1c-14.4-42-74-40.5-86.3,2.2C587.4,258,580.3,266,599,246.8z M671.2,268.6
				c10.4,5.5,23.3,19.7,14.5,33c-4.4,6.8,2.8,1.4-31.4,1.4c-36.4,0-29,6-33.8-1.4C610.9,287.1,639.9,252,671.2,268.6z M824.7,421.7
				c-36.7,6.4-17.3,12.4-39.9-15.4c-67.7-83.5-195.2-83.1-262.3,1.7c-21.8,27.5-2.9,20.3-41,13.7c-12.9-2.2,40.2-85.5,130.4-105
				C753.8,286,845.5,418.1,824.7,421.7z M775.7,409.5c21,24.8,15.4,20.3,1,26.7c-29.8,13.1-2,6.6-47.4-26.7
				c-52.1-38.2-122.4-30.6-165.7,13.5c-28.4,28.9-2,24.4-46.1,8.3C574.1,335.8,705.9,327.1,775.7,409.5z M561.5,439.1
				c46.2-58.6,133.9-60.4,182.4-3.8c15.2,17.7,11.1,8.3-16.5,31.2c-34.1-54.6-113.8-54.2-147.2,1.3
				C552.3,444.2,550.1,453.7,561.5,439.1z M599,458.3c29.3-30.1,76.8-31.3,107.6-3c22.2,20.4,13.1,13.9-9.4,42.1
				c-14.4-42-74-40.5-86.3,2.2C587.4,469.4,580.3,477.4,599,458.3z M660.4,476.3c17.4,3,35.3,21.6,25.3,36.8
				c-5.8,8.8-9.7-4.1-62.1,3.6C610.9,518.6,622,469.8,660.4,476.3z M825.1,619.6c9.8,16.1,8.7,11.3-9.3,15.2
				c-23.2,5.1-11.2,8.6-28.6-13.9c-67.1-86.7-195.8-86.5-263.4-3.2c-21.8,26.9-6,23.1-33.4,17.1c-16.6-3.6-16.5,0.8-7.7-13.9
				C560.3,491.7,746.6,491.3,825.1,619.6z M531.8,622.2c63-76.2,179.7-77,243.9-1.3c21,24.8,15.4,20.3,1,26.7
				c-24.6,10.8-7,10.5-34.1-15.6C697.8,589,629,584.5,579.3,621c-48.3,35.4-16,41.5-49.7,26.7C517.4,642.3,511.5,646.6,531.8,622.2z
				 M744,646.8c15.2,17.7,11.1,8.3-16.5,31.2c-24.4-39-74.9-52.2-115-29.9c-52.7,29.3-10.3,43.2-54,15
				C540,651.3,660.3,549.3,744,646.8z M720.5,683.9c-52.2,47.1-2-0.6-62.7-5.5c-7.5-0.6-14.2,0.7-19.6,2.7
				c-49.6,18.9-0.7,50.6-51,4.2C616.6,634,690.1,633.2,720.5,683.9z M660.4,687.8c17.4,3,35.3,21.6,25.3,36.8
				c-5.8,8.8-9.6-4.1-62.1,3.6C610.9,730,622,681.2,660.4,687.8z M829.3,820.8c14.8-25.2,50.7-23.5,63.6,2
				c-16.6,26-2.9,18.7-32.4,18.7C833.4,841.4,847.5,848.6,829.3,820.8z M1075.2,687.8c17.4,3,35.3,21.6,25.3,36.8
				c-5.6,8.5-11.9-3.8-62.1,3.6C1025.7,730.1,1036.9,681.2,1075.2,687.8z M1072.7,678.5c-7.5-0.6-14.2,0.7-19.6,2.7
				c-49.6,18.9-0.6,50.6-51,4.2c29.3-51.3,102.9-52.2,133.3-1.4C1083.2,731.1,1133.3,683.3,1072.7,678.5z M1027.3,648.1
				c-54.8,30.5-9.2,43.9-54,15c-18.4-11.8,102-113.8,185.6-16.3c15.2,17.7,11.1,8.3-16.5,31.2
				C1117.9,638.9,1067.4,625.7,1027.3,648.1z M1157.4,632.1c-44.6-43.1-113.5-47.5-163.2-11.1c-48.3,35.4-16,41.5-49.7,26.7
				c-12.1-5.3-18-1,2.2-25.4c62.9-76,179.6-77.1,243.9-1.3c21,24.8,15.4,20.3,1,26.7C1166.8,658.5,1184.4,658.1,1157.4,632.1z
				 M1202.1,621c-66.9-86.5-195.6-86.7-263.4-3.2c-21.8,26.9-6,23.1-33.4,17.1c-16.5-3.6-16.5,0.8-7.7-13.9
				c77.5-129.1,263.8-129.9,342.4-1.3c9.8,16.1,8.7,11.3-9.3,15.2C1207.4,639.9,1219.4,643.4,1202.1,621z M1100.6,513.1
				c-5.6,8.5-11.9-3.8-62.1,3.6c-12.8,1.9-1.7-47,36.7-40.4C1092.6,479.3,1110.5,498,1100.6,513.1z M1025.6,499.6
				c-23.5-30.2-30.5-22.2-11.9-41.3c29.1-29.9,76.5-31.5,107.6-3c22.1,20.4,13.1,13.9-9.4,42.1
				C1097.6,455.5,1037.9,456.9,1025.6,499.6z M995.1,467.8c-28-23.6-30.3-14.1-18.8-28.7c46-58.4,133.6-60.7,182.4-3.8
				c15.2,17.7,11.1,8.3-16.5,31.2C1108.1,411.8,1028.4,412.4,995.1,467.8z M1144.1,409.5c-52.2-38.2-122.5-30.5-165.7,13.5
				c-28.4,28.9-2,24.5-46.1,8.3c56.6-95.4,188.4-104.2,258.1-21.8c21,24.8,15.4,20.3,1,26.7C1161.6,449.3,1189.5,442.8,1144.1,409.5
				z M1199.6,406.3c-67.6-83.2-194.9-83.4-262.3,1.7c-21.8,27.5-2.8,20.3-41,13.7c-13-2.3,40.1-85.4,130.4-105
				c141.1-30.5,233.7,101.4,212.8,105C1202.8,428.1,1222.2,434.1,1199.6,406.3z M1100.6,301.7c-4.4,6.7,2.7,1.4-31.4,1.4
				c-36.5,0-29,6-33.8-1.4c-9.6-14.6,19.4-49.7,50.7-33C1096.4,274.2,1109.3,288.3,1100.6,301.7z M1025.6,288.2
				c-23.5-30.2-30.5-22.2-11.9-41.3c29-29.8,76.5-31.6,107.6-3c22.1,20.4,13.2,13.8-9.4,42.1
				C1097.6,244.1,1037.9,245.5,1025.6,288.2z M995.1,256.4c-28-23.6-30.2-14.2-18.8-28.7c46-58.4,133.6-60.7,182.4-3.8
				c15.2,17.7,11.1,8.3-16.5,31.2C1108.1,200.3,1028.4,201,995.1,256.4z M1144.1,198.1c-52.2-38.2-122.5-30.5-165.7,13.5
				c-28.4,28.9-2,24.5-46.1,8.3c56.6-95.5,188.4-104.1,258.1-21.8c21,24.8,15.4,20.3,1,26.7C1161.6,237.9,1189.5,231.3,1144.1,198.1
				z M943.4,108.3c-47.6-41-116.3-40.3-162.9-2.4c-27.9,22.7-3,19.6-45.7,1.8c64.4-83.3,188.9-82.2,252.2,0.8
				C946.4,125.9,967.6,129.2,943.4,108.3z M528.5,108.3c-47.6-41-116.3-40.3-162.9-2.4c-27.9,22.7-3,19.6-45.7,1.8
				c64.2-83.1,188.7-82.3,252.2,0.8C531.6,125.9,552.8,129.2,528.5,108.3z M535.9,128.5c-39.6,27.3-11.8,23.8-44.1,3.3
				c-26.6-16.8-60.9-18.2-89.3-1.7c-35.5,20.7-4.6,25.4-46-2.6C404.4,72.1,489.4,73.7,535.9,128.5z M445.7,127.4
				c28.7,0,63.7,22.2,55.5,31c-29,31.2-7.6,23.1-31.2,8c-9.3-5.9-21.7-8.8-34-6.1c-46.2,10.1-8,36.3-43.5-1.9
				C380.8,145.9,423,127.4,445.7,127.4z M470.1,178c12.2,11.2,6.5,10.4-3.3,30.2c-55.9-5.6-30,12.6-52.4-21.7
				C426.6,165.8,453.4,162.7,470.1,178z M608.9,300.8c7.7,10.9,6.9,2.5-28.1,15.7c-67.4-91-202.3-90.7-269.6-0.7
				c-35.9-13.2-37.2-3.5-26.5-17.9C365.5,188,529.6,189.1,608.9,300.8z M572.1,319.9c-40.5,17.4-19.2,20.7-43.5-0.1
				c-47.6-41-116.3-40.3-162.9-2.4c-27.9,22.7-3,19.6-45.7,1.8C384.1,236,508.6,236.8,572.1,319.9z M535.9,340
				c-39.6,27.3-11.8,23.8-44.1,3.3c-26.6-16.8-60.9-18.2-89.3-1.7c-35.5,20.7-4.6,25.4-46-2.6C404.4,283.6,489.4,285.1,535.9,340z
				 M445.7,338.9c31.3,0,62.9,23.1,55.5,31c-29,31.2-7.6,23.1-31.2,8c-9.3-5.9-21.7-8.8-34-6.1c-46.2,10.1-8,36.3-43.5-1.9
				C380.8,357.3,423,338.9,445.7,338.9z M470.1,389.4c12.2,11.2,6.5,10.4-3.3,30.2c-55.9-5.6-30,12.6-52.4-21.7
				C426.6,377.1,453.5,374.2,470.1,389.4z M608.9,512.2c7.7,10.9,7,2.4-28.1,15.7c-67.1-90.7-202-91-269.6-0.7
				c-35.9-13.2-37.2-3.5-26.5-17.9C365.5,399.5,529.6,400.5,608.9,512.2z M572.1,531.4c-40.5,17.4-19.4,20.7-43.5-0.1
				c-47.6-41-116.3-40.3-162.9-2.4c-28,22.7-2.9,19.7-45.7,1.8C384.1,447.5,508.6,448.2,572.1,531.4z M498.3,521.9
				c10.4,5.2,41.6,26.7,35.5,31c-29,20.6-18.2,21.9-29.5,11.4c-31.8-29.4-80.3-30.8-113.6-3.2c-14.7,12.2-1.5,12.4-30.7-8.3
				C349.5,545.5,421.9,483.8,498.3,521.9z M504.7,577.8c-39.1,40.1-3.9,24.1-41.1,8.1c-11-4.8-22.2-4.8-33.1-0.9
				c-39.8,14.2-2.9,31.7-42.6-8.5C419.5,540.8,474.6,542.2,504.7,577.8z M478,611.3c-16.6,26-2.9,18.7-32.3,18.7
				c-27.1,0-13.1,7.1-31.3-20.7C429.3,584,465.2,586,478,611.3z M613.2,730c-35.6,7.1-30,12.4-34.6,6.5
				c-66.7-86-194.3-86.7-262.4-4.6c-6.7,8-2.6,7.5-11.4,4.6c-26.2-8.7-35.7,0-7.9-30.9C384.8,607.7,541.2,619.7,613.2,730z
				 M445.7,680c80.7,0,128.9,61.7,124.7,63.6c-31.5,13.9-24.1,17.3-30.2,10.6c-43.2-48.1-116.1-56.9-169.5-17.7
				c-34.6,25.4-7.4,24.7-47.4,7.1C314.9,739.8,368,680,445.7,680z M498.3,733.4c10.4,5.2,41.6,26.7,35.5,31
				c-29,20.6-18.2,21.9-29.5,11.4c-31.8-29.5-80.3-30.8-113.6-3.2c-14.7,12.2-1.5,12.4-30.7-8.3
				C349.5,756.9,421.9,695.2,498.3,733.4z M504.7,789.2c-39.1,40.1-3.9,24.1-41.1,8.1c-11.1-4.8-22.2-4.8-33.1-0.9
				c-39.8,14.2-2.8,31.8-42.6-8.5C419.6,752.1,474.7,753.8,504.7,789.2z M478,822.8c-16.6,26-2.9,18.7-32.3,18.7
				c-27.1,0-13.1,7.1-31.3-20.7C429.3,795.4,465.3,797.5,478,822.8z M1275.4,841.4c-27.1,0-13.1,7.1-31.3-20.7
				c14.8-25.3,50.8-23.5,63.6,2C1291.1,848.7,1304.9,841.4,1275.4,841.4z M1293.3,797.3c-10.9-4.7-22-4.8-33.1-0.9
				c-39.8,14.2-2.8,31.8-42.6-8.5c31.6-35.7,86.6-34.3,116.8,1.3C1295.2,829.3,1330.4,813.3,1293.3,797.3z M1333.9,775.8
				c-32.1-29.8-80.6-30.5-113.6-3.2c-14.7,12.2-1.5,12.4-30.6-8.3c-10.5-7.4,62-69.1,138.3-31c10.4,5.2,41.6,26.7,35.5,31
				C1334,785.2,1345.3,786.3,1333.9,775.8z M1200.4,736.5c-34.6,25.4-7.4,24.7-47.4,7.1c-8.5-3.7,44.6-63.6,122.3-63.6
				c80.1,0,129.2,61.6,124.7,63.6c-31.5,13.9-24.1,17.3-30.2,10.6C1326.5,705.9,1253.6,697.4,1200.4,736.5z M1145.9,731.9
				c-6.7,8-2.6,7.5-11.4,4.6c-25.9-8.6-35.7,0-7.9-30.9c88.1-98,244.4-85.6,316.2,24.5c-36.4,7.3-29.9,12.5-34.6,6.5
				C1341.3,650,1213.7,650.2,1145.9,731.9z M1275.4,630c-27.1,0-13.1,7.1-31.3-20.7c14.8-25.2,50.7-23.5,63.6,2
				C1291.1,637.3,1304.9,630,1275.4,630z M1293.3,585.9c-11.1-4.8-22.2-4.8-33.1-0.9c-39.8,14.2-2.8,31.7-42.6-8.5
				c31.7-35.8,86.7-34.2,116.8,1.3C1295.3,617.9,1330.4,601.9,1293.3,585.9z M1333.9,564.3c-31.9-29.5-80.4-30.8-113.6-3.2
				c-14.7,12.2-1.5,12.4-30.6-8.3c-10.7-7.5,62-69.1,138.3-31c10.4,5.2,41.6,26.7,35.5,31C1334.4,573.5,1345.2,574.8,1333.9,564.3z
				 M1358.2,531.2c-47.6-41-116.3-40.3-162.9-2.4c-27.9,22.7-3.1,19.6-45.7,1.8c64.2-83.1,188.7-82.4,252.2,0.8
				C1361.2,548.8,1382.4,552,1358.2,531.2z M1140.8,527.2c-35.9-13.2-37.2-3.5-26.5-17.9c80.7-109.6,244.8-109,324.3,2.9
				c7.7,10.9,7,2.4-28.1,15.7C1342.9,436.7,1208,437.4,1140.8,527.2z M1244.1,397.9c12.1-20.7,39-23.8,55.7-8.5
				c12.2,11.2,6.5,10.5-3.3,30.2C1240.7,414,1266.5,432.2,1244.1,397.9z M1299.7,377.9c-9.3-5.9-21.7-8.8-34-6.1
				c-46.2,10.1-8,36.3-43.5-1.9c-11.7-12.6,30.5-31,53.2-31c31.3,0,62.9,23.1,55.5,31C1301.8,401.2,1323.3,393,1299.7,377.9z
				 M1321.4,343.2c-26.6-16.9-60.9-18.2-89.3-1.7c-35.6,20.7-4.7,25.3-46-2.6c48-55.4,133-53.8,179.4,1
				C1325.9,367.3,1353.7,363.7,1321.4,343.2z M1358.2,319.8c-47.6-41-116.3-40.3-162.9-2.4c-27.9,22.7-3,19.6-45.7,1.8
				c64.3-83.2,188.8-82.3,252.2,0.8C1361.2,337.3,1382.5,340.7,1358.2,319.8z M1140.8,315.7c-35.9-13.2-37.2-3.5-26.5-17.9
				c80.9-109.8,245-108.8,324.3,2.9c7.7,10.9,7,2.4-28.1,15.7C1343,225.4,1208.1,225.7,1140.8,315.7z M1244.1,186.5
				c12.1-20.7,39-23.8,55.7-8.5c12.2,11.2,6.5,10.5-3.3,30.2C1240.7,202.5,1266.5,220.7,1244.1,186.5z M1299.7,166.5
				c-9.3-5.9-21.7-8.8-34-6.1c-46.2,10.1-8,36.3-43.5-1.9c-11.7-12.6,30.5-31,53.2-31c28.7,0,63.7,22.2,55.5,31
				C1301.8,189.7,1323.3,181.6,1299.7,166.5z M1321.4,131.8c-26.6-16.8-60.9-18.2-89.3-1.7c-35.6,20.7-4.7,25.3-46-2.6
				c48-55.4,133-53.8,179.4,1C1325.9,155.9,1353.7,152.3,1321.4,131.8z M1358.2,108.3C1310.7,67.4,1242,68,1195.3,106
				c-27.9,22.7-3,19.6-45.7,1.8c64.3-83.2,188.8-82.3,252.2,0.8C1361.2,125.9,1382.5,129.2,1358.2,108.3z M1191.5,13.3
				c-24.6,10.8-7,10.5-34.1-15.6c-51.1-49.3-130.6-46.8-178.9,2.4c-28.4,28.9-2,24.5-46.1,8.3c55.8-94.1,186.1-105.1,257.1-23
				C1212,11.5,1205.6,7.1,1191.5,13.3z M776.6,13.3c-24.6,10.8-7,10.5-34.1-15.6c-50.9-49.1-130.4-47-178.9,2.4
				c-28.5,29-2,24.4-46.1,8.3c56-94.4,186.3-104.9,257.1-23C797.1,11.5,790.8,7.1,776.6,13.3z M361.8,13.3
				c-24.6,10.8-7.1,10.5-34.1-15.6c-51.1-49.3-130.6-46.8-178.9,2.4c-28.4,28.9-2,24.5-46.1,8.3c55.8-94.1,186.1-105.1,257.1-23
				C382.3,11.5,376,7.1,361.8,13.3z M202.4,11.3c-14.6,6.9-27.6,18.2-36.9,33.7c-28-23.6-30.2-14.2-18.8-28.7
				c46.3-58.7,134.1-60.1,182.4-3.8c15.2,17.7,11.1,8.3-16.5,31.2C288,4.2,239.8-6.4,202.4,11.3 M184.1,35.4
				c29-29.8,76.5-31.6,107.6-3c22.1,20.3,13.2,13.8-9.4,42.1c-14.4-42-74-40.4-86.3,2.2C172.5,46.5,165.5,54.6,184.1,35.4z
				 M256.4,57.2c10.4,5.5,23.3,19.7,14.5,33c-4.4,6.8,2.9,1.4-31.4,1.4c-36.5,0-29,6-33.8-1.4C195.8,75.2,225.5,40.8,256.4,57.2z
				 M409.9,210.2c-36.7,6.4-17.3,12.4-39.9-15.4c-67.6-83.2-194.9-83.4-262.3,1.7c-21.8,27.5-2.9,20.3-41,13.7
				c-13-2.2,40-85.4,130.4-105C338.4,74.6,430.8,206.6,409.9,210.2z M360.8,198.1c21,24.8,15.4,20.3,1,26.7
				c-29.8,13.1-2,6.6-47.4-26.7c-52.3-38.3-122.6-30.4-165.7,13.5c-28.4,28.9-2,24.5-46.1,8.3C159.3,124.4,290.9,115.6,360.8,198.1z
				 M146.7,227.7c46-58.4,133.6-60.7,182.4-3.8c15.2,17.7,11.1,8.3-16.5,31.2c-34.2-54.6-113.8-54.2-147.2,1.3
				C137.5,232.8,135.2,242.2,146.7,227.7z M184.1,246.8c29-29.8,76.5-31.6,107.6-3c22.1,20.4,13.2,13.8-9.4,42.1
				c-14.5-42.2-74.1-40.4-86.3,2.2C172.5,258,165.5,266,184.1,246.8z M256.4,268.6c10.4,5.5,23.3,19.7,14.5,33
				c-4.4,6.7,2.7,1.4-31.4,1.4c-36.4,0-29,6-33.8-1.4C196.1,287.1,225,252,256.4,268.6z M409.9,421.7c-36.7,6.4-17.3,12.4-39.9-15.4
				c-67.6-83.2-194.9-83.4-262.3,1.7c-21.8,27.5-2.8,20.3-41,13.7c-12.5-2.2,39.6-85.3,130.4-105C338.8,286,430.7,418.1,409.9,421.7
				z M360.8,409.5c21,24.8,15.4,20.3,1,26.7c-29.8,13.1-2,6.6-47.4-26.7c-52.3-38.3-122.6-30.4-165.7,13.5
				c-28.4,28.9-2,24.5-46.1,8.3C159.3,335.8,291,327.1,360.8,409.5z M146.7,439.1c46-58.4,133.6-60.7,182.4-3.8
				c15.2,17.7,11.1,8.3-16.5,31.2c-34.2-54.6-113.8-54.2-147.2,1.3C137.4,444.2,135.2,453.7,146.7,439.1z M184.1,458.3
				c29.1-29.9,76.5-31.5,107.6-3c22.1,20.4,13.2,13.9-9.4,42.1c-14.5-42.2-74.1-40.4-86.3,2.2C172.5,469.4,165.5,477.4,184.1,458.3z
				 M245.6,476.3c17.4,3,35.3,21.6,25.3,36.8c-5.6,8.5-12.1-3.8-62.1,3.6C196.1,518.6,207.2,469.8,245.6,476.3z M410.3,619.6
				c9.7,16,8.7,11.3-9.3,15.2c-23.2,5.1-11.2,8.6-28.6-13.9c-66.6-86.1-195.3-87.1-263.4-3.2c-21.8,26.9-6,23.1-33.4,17.1
				c-16.6-3.6-16.5,0.8-7.7-13.9C145.6,491.4,332,491.5,410.3,619.6z M116.9,622.2c62.6-75.7,179.2-77.4,243.9-1.3
				c21,24.8,15.4,20.3,1,26.7c-24.6,10.8-7.1,10.5-34.1-15.6c-44.6-43-113.4-47.6-163.2-11.1c-48.3,35.4-16,41.5-49.7,26.7
				C102.6,642.3,96.7,646.6,116.9,622.2z M329.1,646.8c15.2,17.8,11.1,8.3-16.5,31.2c-24.4-39.1-74.9-52.2-115-29.9
				c-54.8,30.5-9.2,43.9-54,15C125.2,651.3,245.5,549.3,329.1,646.8z M305.7,683.9c-52.2,47.2-2-0.6-62.7-5.5
				c-7.5-0.6-14.3,0.7-19.6,2.7c-49.6,18.9-0.6,50.6-51,4.2C201.7,634,275.2,633.2,305.7,683.9z M245.6,687.8
				c17.4,3,35.3,21.6,25.3,36.8c-5.6,8.5-11.9-3.8-62.1,3.6C196.1,730.1,207.2,681.2,245.6,687.8z M410.3,831.1
				c9.8,16.1,8.7,11.3-9.3,15.2c-23.2,5.1-11.2,8.5-28.6-13.9c-66.8-86.4-195.5-86.8-263.4-3.2c-21.8,26.9-6,23.1-33.4,17.1
				c-16.5-3.6-16.5,0.8-7.7-13.9C145.5,702.9,332,703,410.3,831.1z M116.9,833.7c63.1-76.3,180-76.8,243.9-1.3
				c21,24.8,15.4,20.3,1,26.7c-24.6,10.8-7.1,10.5-34.1-15.6c-45.1-43.6-114.1-47.2-163.2-11.1c-48.2,35.3-16.1,41.5-49.7,26.7
				C102.6,853.7,96.7,858.1,116.9,833.7z M329.1,858.2c15.2,17.7,11.1,8.3-16.5,31.2c-24.4-39.1-74.9-52.2-115-29.9
				c-54.8,30.5-9.2,43.9-54,15C125.4,862.9,245.4,760.6,329.1,858.2z M305.7,895.4c-52.2,47.1-2.1-0.6-62.7-5.5
				c-7.5-0.6-14.3,0.7-19.6,2.7c-49.6,18.9-0.6,50.6-51,4.2C201.7,845.5,275.2,844.6,305.7,895.4z M245.6,899.2
				c17.4,3,35.3,21.6,25.3,36.8c-5.8,8.9-9.7-4.1-62.1,3.6C196.1,941.5,207.2,892.7,245.6,899.2z M414.4,1032.2
				c14.9-25.4,50.8-23.3,63.6,2c-16.6,26-2.9,18.7-32.3,18.7C418.6,1052.9,432.6,1060,414.4,1032.2z M829.3,1032.2
				c14.8-25.2,50.7-23.5,63.6,2c-16.5,25.9-2.9,18.7-32.4,18.7C833.4,1052.9,847.5,1060,829.3,1032.2z M1244.1,1032.2
				c14.9-25.4,50.8-23.3,63.6,2c-16.6,26-2.8,18.7-32.4,18.7C1248.2,1052.9,1262.3,1060,1244.1,1032.2z M1490.1,899.2
				c17.4,3,35.3,21.6,25.3,36.8c-5.8,8.8-9.6-4.1-62.1,3.6C1440.6,941.5,1451.7,892.7,1490.1,899.2z M1487.5,889.9
				c-7.5-0.6-14.2,0.7-19.6,2.7c-49.6,18.9-0.6,50.6-51,4.2c29.3-51.3,102.8-52.2,133.3-1.4C1498,942.5,1548.1,894.8,1487.5,889.9z
				 M1442.1,859.5c-52.3,29.1-10.4,43.1-54,15c-18.1-11.7,101.9-113.9,185.6-16.3c15.2,17.7,11.1,8.3-16.5,31.2
				C1532.8,850.5,1482.3,837.1,1442.1,859.5z M1572.2,843.5c-45.1-43.5-114-47.2-163.2-11.1c-48.2,35.3-16.1,41.5-49.7,26.7
				c-12.1-5.3-18.1-1,2.2-25.4c63.9-77.1,180.7-76.1,243.9-1.3c21,24.8,15.4,20.3,1,26.7C1581.6,869.9,1599.2,869.6,1572.2,843.5z
				 M1616.9,832.4c-66.3-85.8-195.1-87.4-263.4-3.2c-21.8,26.9-6,23.1-33.4,17.1c-16.5-3.6-16.5,0.8-7.7-13.9
				c77.2-128.9,263.7-130,342.4-1.3c9.9,16.1,8.6,11.3-9.3,15.2C1622.3,851.4,1634.3,854.9,1616.9,832.4z M1490.1,687.8
				c17.4,3,35.3,21.6,25.3,36.8c-5.8,8.8-9.6-4.1-62.1,3.6C1440.6,730,1451.7,681.2,1490.1,687.8z M1487.5,678.5
				c-7.5-0.6-14.2,0.7-19.6,2.7c-49.6,18.9-0.7,50.6-51,4.2c29.3-51.3,102.8-52.2,133.3-1.4C1498,731.1,1548.1,683.3,1487.5,678.5z
				 M1442.1,648.1c-52.3,29.1-10.4,43.1-54,15c-18.4-11.8,101.9-113.9,185.6-16.3c15.2,17.8,11.1,8.3-16.5,31.2
				C1532.8,639,1482.3,625.7,1442.1,648.1z M1572.2,632.1c-44.8-43.2-113.6-47.5-163.2-11.1c-48.3,35.4-16,41.5-49.7,26.7
				c-12.1-5.3-18.1-1,2.2-25.4c63.2-76.3,179.7-76.9,243.9-1.3c21,24.8,15.4,20.3,1,26.7C1581.7,658.5,1599.2,658.1,1572.2,632.1z
				 M1616.9,621c-66.7-86.3-195.5-86.9-263.4-3.2c-21.9,26.9-6,23.1-33.4,17.1c-16.6-3.6-16.5,0.8-7.7-13.9
				c77.7-129.5,264.1-129.4,342.4-1.3c9.9,16.1,8.6,11.3-9.3,15.2C1622.3,639.9,1634.3,643.4,1616.9,621z M1515.4,513.1
				c-4.4,6.8,2.9,1.4-31.4,1.4c-36.4,0-29,6-33.8-1.4c-9.6-14.6,19.4-49.6,50.7-33C1511.3,485.6,1524.2,499.8,1515.4,513.1z
				 M1440.5,499.6c-23.5-30.2-30.5-22.2-11.9-41.3c29-29.8,76.5-31.6,107.6-3c22.1,20.4,13.1,13.9-9.4,42.1
				C1512.4,455.5,1452.7,457,1440.5,499.6z M1410,467.8c-28-23.7-30.3-14.1-18.8-28.7c46-58.4,133.6-60.7,182.4-3.8
				c15.2,17.8,11.1,8.3-16.5,31.2C1522.9,411.8,1443.2,412.4,1410,467.8z M1558.9,409.5c-52-38.1-122.3-30.7-165.7,13.5
				c-28.4,28.9-2,24.4-46.1,8.3c56.6-95.5,188.3-104.2,258.1-21.8c21,24.8,15.4,20.3,1,26.7C1576.3,449.4,1604.5,442.9,1558.9,409.5
				z M1614.5,406.3c-67.6-83.2-194.9-83.4-262.3,1.7c-21.8,27.5-2.8,20.3-41,13.7c-13-2.3,40.1-85.4,130.4-105
				c141.7-30.7,233.6,101.4,212.8,105C1617.7,428,1637,434.1,1614.5,406.3z M1515.4,301.7c-4.4,6.8,2.9,1.4-31.4,1.4
				c-36.4,0-29,6-33.8-1.4c-9.6-14.6,19.4-49.6,50.7-33C1511.3,274.2,1524.2,288.3,1515.4,301.7z M1440.5,288.2
				c-23.5-30.2-30.5-22.2-11.9-41.3c29-29.8,76.5-31.6,107.6-3c22.1,20.4,13.2,13.8-9.4,42.1
				C1512.4,244.1,1452.8,245.5,1440.5,288.2z M1410,256.4c-28-23.6-30.2-14.2-18.8-28.7c46-58.4,133.6-60.7,182.4-3.8
				c15.2,17.8,11.1,8.3-16.5,31.2C1522.9,200.3,1443.3,200.9,1410,256.4z M1558.9,198.1c-52-38.1-122.3-30.7-165.7,13.5
				c-28.4,28.9-2,24.4-46.1,8.3c56.6-95.5,188.3-104.2,258.1-21.8c21,24.8,15.4,20.3,1,26.7C1576.3,237.9,1604.5,231.5,1558.9,198.1
				z M1614.5,194.8c-67.6-83.2-194.9-83.4-262.3,1.7c-21.8,27.5-2.9,20.3-41,13.7c-12.7-2.2,39.6-85.3,130.4-105
				c141.9-30.7,233.5,101.4,212.8,105C1617.7,216.6,1637,222.6,1614.5,194.8z M1515.4,90.2c-4.4,6.8,2.9,1.4-31.4,1.4
				c-36.4,0-29,6-33.8-1.4c-9.6-14.6,19.4-49.6,50.7-33C1511.3,62.7,1524.2,76.9,1515.4,90.2z M1440.5,76.7
				c-23.5-30.2-30.5-22.2-11.9-41.3c29-29.8,76.5-31.6,107.6-3c22.1,20.4,13.2,13.8-9.4,42.1C1512.4,32.6,1452.8,34.1,1440.5,76.7z
				 M1410,44.9c-28-23.6-30.2-14.2-18.8-28.7c46.1-58.4,133.9-60.4,182.4-3.8c15.2,17.8,11.1,8.3-16.5,31.2
				C1522.8-11.2,1443.2-10.3,1410,44.9z M1572.2-2.3c-50.8-49.1-130.4-47-178.9,2.4c-28.4,28.9-2,24.5-46.1,8.3
				c56-94.3,186.2-104.9,257.1-23c22.6,26.1,16.2,21.6,2,27.9C1581.6,24.1,1599.2,23.8,1572.2-2.3z M1442.9-115.8
				c-11.2,2.2-22,5.4-32.4,9.3c-67.3-90.9-201.8-91.3-269.6-0.7c-10.5-3.9-21.5-6.8-32.7-9C1187.3-236.9,1363.7-236.9,1442.9-115.8z
				 M1093.3-109.3c98.5,11.9,165.4,104.7,146.3,108.1c-41.4,7.2-11.6,14-48.3-24.8c-67.8-71.9-180.5-69.8-246.1,2
				c-34.4,37.7-5.3,30.3-48.8,22.8C882.3-3.6,958.3-125.6,1093.3-109.3z M1028-115.8c-11.2,2.2-22,5.4-32.4,9.3
				c-67.3-90.9-201.8-91.3-269.6-0.7c-10.5-3.9-21.5-6.8-32.7-9C772.5-236.9,948.9-236.9,1028-115.8z M678.5-109.3
				C777-97.3,843.8-4.5,824.7-1.2c-41.2,7.2-12.1,13.6-48.3-24.8c-68-72-180.6-69.7-246.1,2c-34.4,37.7-5.5,30.3-48.8,22.8
				C467.4-3.7,543.5-125.6,678.5-109.3z M613.2-115.8c-11.2,2.2-22,5.4-32.4,9.3c-67.3-90.9-201.8-91.3-269.6-0.7
				c-10.5-3.9-21.5-6.8-32.7-9C357.7-236.9,534.1-236.9,613.2-115.8z M263.6-109.3C362.3-97.3,429-4.5,409.9-1.2
				c-41.4,7.2-11.6,14-48.3-24.8c-68-72-180.6-69.6-246.1,2C81,13.7,110.2,6.3,66.7-1.2C52.6-3.6,128.5-125.6,263.6-109.3z
				 M-136.4-116.1c79.2-120.7,255.6-120.8,334.8,0.4c-11.2,2.2-22,5.4-32.4,9.3c-67.3-90.9-201.8-91.3-269.6-0.7
				C-114.2-111-125.2-114-136.4-116.1z M-66.1-88.9c-9.2-5.6-18.8-10.6-28.8-14.8c64-82.9,188.3-82.9,252.2,0.8
				c-9.9,4.3-19.5,9.3-28.5,15C78.2-148.7-14.6-149.6-66.1-88.9z M-33.5-64.1C-41.3-71.3-49.6-78-58.4-84
				c47.8-55.2,132.6-54.3,179.4,1c-8.8,6-17,12.7-24.7,20C62.2-102.5,1.5-103.3-33.5-64.1z M-6-33.1c-6.4-8.8-13.3-17.1-20.9-24.7
				C4.4-93.2,59.3-92.7,89.8-56.6c-7.6,7.8-14.6,16.2-20.9,25.1C51.4-58.3,12.8-59.3-6-33.1z M63.2-23C59.2-16.6,55.4-10.1,52-3.3
				C-3.5-8.9,21.9,9.1-0.4-25C14.3-50.1,50.2-48.8,63.2-23z M-130.2,86.4c80.7-109.6,244.8-109,324.3,2.9c7.7,10.9,7,2.4-28.1,15.7
				c-67.4-91-202.3-90.7-269.6-0.7C-139.6,91.1-140.8,100.8-130.2,86.4z M-94.9,107.7c64.3-83.2,188.8-82.3,252.2,0.8
				c-40.5,17.4-19.2,20.7-43.5-0.1C66.1,67.3-2.6,68.1-49.2,106C-77.2,128.7-52.2,125.6-94.9,107.7z M-58.4,127.5
				c48-55.4,133-53.8,179.4,1c-39.7,27.3-11.8,23.8-44.1,3.3c-26.4-16.7-60.7-18.3-89.3-1.7C-48,150.8-17.1,155.4-58.4,127.5z
				 M-22.3,158.5c-11.7-12.6,30.5-31,53.2-31c31.1,0,62.9,23.1,55.5,31c-29.1,31.3-7.6,23.1-31.2,8c-9.3-5.9-21.7-8.8-34-6.1
				C-25.1,170.4,13.2,196.7-22.3,158.5z M52,208.2c-55.9-5.6-30,12.5-52.4-21.7c12.1-20.7,39-23.8,55.7-8.5
				C67.5,189.1,61.8,188.4,52,208.2z M-130.2,297.8c80.7-109.6,244.8-109,324.3,2.9c7.7,10.9,7,2.4-28.1,15.7
				c-67.1-90.6-202-91.1-269.6-0.7C-139.6,302.6-140.8,312.2-130.2,297.8z M-94.9,319.2c64.3-83.2,188.8-82.3,252.2,0.8
				c-40.5,17.4-19.2,20.8-43.5-0.1c-47.2-40.6-115.9-40.6-162.9-2.4C-77.2,340.1-52.1,337.1-94.9,319.2z M-58.4,338.9
				c48-55.4,133-53.8,179.4,1c-39.7,27.3-11.8,23.8-44.1,3.3C50.3,326.4,16,325-12.4,341.6C-48,362.3-17.1,366.9-58.4,338.9z
				 M-22.3,369.9c-11.7-12.6,30.5-31,53.2-31c31.1,0,62.9,23.1,55.5,31c-29.1,31.3-7.6,23.1-31.2,8c-9.3-5.9-21.7-8.8-34-6.1
				C-25.1,381.9,13.2,408.1-22.3,369.9z M-0.4,397.9c12.1-20.7,39-23.8,55.7-8.5c12.2,11.2,6.5,10.5-3.3,30.2
				C-3.8,414,22,432.2-0.4,397.9z M-136.4,518.2C-64.1,408,92,396.6,179.6,494.1c28,31.1,18.8,22.9-5.5,30.9
				c-19.9,6.6-36.8-58.7-132-65c-50.3-3.3-97.7,15.8-131.2,50C-113.4,534.8-91.1,526.8-136.4,518.2z M-91.5,532.1
				c-9.9-4.3,48.8-67.6,131-63.2c73,4,121.4,60.8,116,63.2c-51.1,22.5-3.6,17.7-62.6-15.5C50.8,493-2.5,494.5-44.1,525
				C-78.9,550.5-51.5,549.7-91.5,532.1z M-54.9,552.9c-4-2.8-5.2-1.5,2.7-9.3c78.9-78,182,1.5,171.1,9.3
				c-29,20.6-18.2,21.9-29.5,11.4C57.7,535,9.3,533.4-24.2,561.2C-38.9,573.4-25.7,573.5-54.9,552.9z M-22.3,581.4
				c-4.6-4.9-7.9-4,5.8-14.7c50.3-39.1,113.1,3.7,102.9,14.7c-29,31.2-7.7,23.1-31.2,8c-9.2-5.9-21.6-8.8-34-6.1
				C-25.1,593.3,13.2,619.6-22.3,581.4z M-0.4,609.3c12.1-20.7,39-23.8,55.7-8.5c12.2,11.2,6.5,10.4-3.3,30.2
				C-3.9,625.4,22,643.6-0.4,609.3z M-110,736.5c-25.9-8.6-35.7,0-7.9-30.9c87.5-97.3,243.9-86.4,316.2,24.5
				c-36.4,7.3-29.9,12.5-34.6,6.5c-67-86.4-194.6-86.3-262.4-4.6C-105.2,739.9-101.2,739.4-110,736.5z M-91.5,743.6
				c-8.5-3.7,44.6-63.6,122.3-63.6c80.1,0,129.2,61.6,124.7,63.6c-31.5,13.9-24.1,17.3-30.2,10.6c-43.1-48-116-57-169.5-17.7
				C-78.8,761.8-51.5,761.2-91.5,743.6z M-54.9,764.3c-10.5-7.5,62-69.1,138.3-31c10.4,5.2,41.6,26.7,35.5,31
				c-29,20.6-18.2,21.9-29.5,11.4c-31.8-29.4-80.3-30.8-113.6-3.2C-38.9,784.8-25.7,785-54.9,764.3z M-26.9,787.9
				c31.7-35.8,86.8-34.2,116.8,1.3c-39.1,40.1-3.9,24.1-41.1,8.1c-10.9-4.7-22-4.8-33.1-0.9C-24.1,810.6,12.8,828.1-26.9,787.9z
				 M-0.4,820.8c14.8-25.3,50.8-23.5,63.6,2c-16.6,26-2.9,18.7-32.4,18.7C3.7,841.4,17.8,848.6-0.4,820.8z M-110,947.9
				c-26.4-8.7-35.7,0.1-7.9-30.9c87.7-97.6,244.1-86,316.2,24.5c-35.5,7.1-30,12.4-34.6,6.5c-66.7-86-194.3-86.7-262.4-4.6
				C-105.2,951.3-101.2,950.8-110,947.9z M-91.5,955c-9-4,45.4-63.6,122.3-63.6c80.3,0,129.1,61.7,124.7,63.6
				c-31.7,14-24.1,17.4-30.2,10.6c-43.1-48-116-57-169.5-17.7C-78.9,973.4-51.5,972.6-91.5,955z M-54.9,975.8
				c-10.6-7.5,62.2-69,138.3-31c10.4,5.2,41.6,26.7,35.5,31c-29,20.6-18.2,21.9-29.5,11.4C57.6,957.8,9.1,956.4-24.2,984
				C-38.9,996.3-25.7,996.4-54.9,975.8z M-26.9,999.4c31.6-35.7,86.7-34.3,116.8,1.3c-39.1,40.1-3.9,24.1-41.1,8.1
				c-10.9-4.7-22-4.8-33.1-0.9C-24.1,1022.1,12.9,1039.6-26.9,999.4z M-0.4,1032.2c14.9-25.4,50.8-23.3,63.6,2
				c-16.6,26-2.9,18.7-32.4,18.7C3.7,1052.9,17.8,1060-0.4,1032.2z M32,1332.2c-3.7-30.3-7.6-24.9-1.2-24.9
				C40.6,1307.4,36,1300.4,32,1332.2z M30.9,1298.3c-12.5,0-0.7-3.3-26-46.2c-14-23.8,40.5-41.8,58.4-6.4
				C33.8,1291.7,47.5,1298.3,30.9,1298.3z M86.4,1215.7c-29.1,31.3-7.6,23.1-31.2,8c-9.3-5.9-21.7-8.8-34-6.1
				c-46.2,10.1-8,36.3-43.5-1.9c-12-12.9,32.9-33.5,61-30.6C60.5,1187.3,94.8,1206.7,86.4,1215.7z M118.9,1187.2
				c-29,20.6-18.2,21.9-29.5,11.4c-32.1-29.7-80.6-30.5-113.6-3.2c-14.7,12.2-1.5,12.4-30.6-8.3c-10.6-7.5,62.2-69,138.3-31
				C93.9,1161.5,125,1182.9,118.9,1187.2z M155.6,1166.5c-31.7,14-24.1,17.4-30.2,10.6c-43.4-48.3-116.3-56.8-169.5-17.7
				c-34.8,25.5-7.4,24.7-47.4,7.1c-9-4,45.4-63.6,122.3-63.6C111.2,1102.9,159.9,1164.5,155.6,1166.5z M163.8,1159.4
				c-66.8-86.2-194.4-86.6-262.4-4.6c-6.7,8-2.6,7.5-11.4,4.6c-26.3-8.7-35.7,0-7.9-30.9c87.6-97.5,244-86.2,316.2,24.5
				C162.8,1160,168.4,1165.3,163.8,1159.4z M270.9,1147.5c-5.8,8.9-9.7-4.1-62.1,3.6c-12.7,1.9-1.6-47,36.7-40.4
				C262.9,1113.6,280.9,1132.3,270.9,1147.5z M243,1101.3c-7.5-0.6-14.3,0.7-19.6,2.7c-49.6,18.9-0.6,50.6-51,4.2
				c29.3-51.3,102.8-52.2,133.3-1.4C253.5,1154,303.9,1106.2,243,1101.3z M446.9,1332.2c-3.7-30.3-7.6-24.9-1.2-24.9
				C455.4,1307.4,450.8,1300.4,446.9,1332.2z M445.7,1298.3c-12.5,0-0.8-3.3-26-46.2c-14.2-24.1,40.6-41.7,58.4-6.4
				C448.6,1291.7,462.3,1298.3,445.7,1298.3z M501.2,1215.7c-29,31.2-7.6,23.1-31.2,8c-9.3-5.9-21.7-8.8-34-6.1
				c-46.2,10.1-8,36.3-43.5-1.9c-12-12.9,32.9-33.5,61-30.6C475.4,1187.3,509.6,1206.7,501.2,1215.7z M533.8,1187.2
				c-29,20.6-18.2,21.9-29.5,11.4c-31.8-29.4-80.3-30.8-113.6-3.2c-14.7,12.2-1.5,12.4-30.7-8.3c-10.5-7.4,61.9-69.1,138.3-31
				C508.7,1161.5,539.9,1182.9,533.8,1187.2z M570.4,1166.5c-31.7,13.9-24.1,17.3-30.2,10.6c-43-47.9-115.9-57.1-169.5-17.7
				c-34.8,25.5-7.4,24.7-47.4,7.1c-8.5-3.7,44.6-63.6,122.3-63.6C525.9,1102.9,574.7,1164.6,570.4,1166.5z M578.6,1159.4
				c-66.7-86-194.3-86.7-262.4-4.6c-6.7,8-2.6,7.5-11.4,4.6c-25.9-8.6-35.7,0-7.9-30.9c88.1-98,244.4-85.6,316.2,24.5
				C577.6,1160,583.2,1165.3,578.6,1159.4z M685.7,1147.5c-5.8,8.8-9.6-4.1-62.1,3.6c-12.7,1.8-1.6-47,36.8-40.4
				C677.8,1113.6,695.7,1132.3,685.7,1147.5z M657.9,1101.3c-7.5-0.6-14.2,0.7-19.6,2.7c-49.6,18.9-0.6,50.6-51,4.2
				c29.3-51.3,102.8-52.2,133.3-1.4C668.3,1154,718.7,1106.2,657.9,1101.3z M861.7,1332.2c-3.7-30.3-7.6-24.9-1.2-24.9
				C870.2,1307.4,865.6,1300.4,861.7,1332.2z M860.5,1298.3c-12.5,0-0.8-3.3-26-46.2c-14.1-23.9,40.5-41.8,58.4-6.4
				C863.4,1291.7,877.2,1298.3,860.5,1298.3z M916.1,1215.7c-29.1,31.3-7.6,23.1-31.2,8c-9.3-5.9-21.7-8.8-34-6.1
				c-46.2,10.1-8,36.3-43.5-1.9c-12-12.9,32.9-33.5,61-30.6C890.2,1187.3,924.4,1206.7,916.1,1215.7z M948.6,1187.2
				c-29,20.6-18.2,21.9-29.5,11.4c-31.8-29.4-80.3-30.8-113.6-3.2c-14.7,12.2-1.5,12.4-30.7-8.3c-10.5-7.4,62-69.1,138.3-31
				C923.5,1161.5,954.7,1182.9,948.6,1187.2z M985.2,1166.5c-31.7,14-24.1,17.4-30.2,10.6c-43.3-48.2-116.2-56.8-169.5-17.7
				c-34.8,25.5-7.4,24.7-47.4,7.1c-9-3.9,45.3-63.6,122.3-63.6C940.8,1102.9,989.6,1164.5,985.2,1166.5z M993.5,1159.4
				c-67.1-86.5-194.7-86.2-262.4-4.6c-6.7,8-2.6,7.5-11.4,4.6c-26.2-8.6-35.7,0-7.9-30.9c87.2-97.1,243.7-86.6,316.2,24.5
				C992.5,1160,998,1165.3,993.5,1159.4z M1100.6,1147.5c-5.8,8.9-9.7-4.1-62.1,3.6c-12.7,1.9-1.6-47,36.7-40.4
				C1092.6,1113.6,1110.5,1132.3,1100.6,1147.5z M1072.7,1101.3c-7.5-0.6-14.3,0.7-19.6,2.7c-49.6,18.9-0.6,50.6-51,4.2
				c29.4-51.4,102.9-52.2,133.3-1.4C1083.2,1154,1133.6,1106.2,1072.7,1101.3z M1276.5,1332.2c-3.7-30.3-7.6-24.9-1.2-24.9
				C1285.1,1307.4,1280.5,1300.4,1276.5,1332.2z M1275.4,1298.3c-12.5,0-0.7-3.3-26-46.2c-14-23.8,40.5-41.8,58.4-6.4
				C1278.3,1291.7,1292,1298.3,1275.4,1298.3z M1330.9,1215.7c-29.1,31.3-7.6,23.1-31.2,8c-9.3-5.9-21.7-8.8-34-6.1
				c-46.2,10.1-8,36.3-43.5-1.9c-12-12.9,32.9-33.5,61-30.6C1305,1187.3,1339.3,1206.7,1330.9,1215.7z M1363.4,1187.2
				c-29,20.6-18.2,21.9-29.5,11.4c-32.2-29.8-80.7-30.5-113.6-3.2c-14.7,12.2-1.5,12.4-30.6-8.3c-10.5-7.4,61.9-69.1,138.3-31
				C1338.4,1161.5,1369.5,1182.9,1363.4,1187.2z M1400.1,1166.5c-31.5,13.9-24.1,17.3-30.2,10.6c-43.4-48.3-116.3-56.8-169.5-17.7
				c-34.8,25.5-7.4,24.7-47.4,7.1c-8.5-3.7,44.6-63.6,122.3-63.6C1355.5,1102.9,1404.5,1164.5,1400.1,1166.5z M1408.3,1159.4
				c-66.7-86-194.2-86.7-262.4-4.6c-6.7,8-2.6,7.5-11.4,4.6c-26.3-8.7-35.7,0-7.9-30.9c87.8-97.7,244.2-85.9,316.2,24.5
				C1407.3,1160,1412.9,1165.3,1408.3,1159.4z M1515.4,1147.5c-5.8,8.8-9.6-4.1-62.1,3.6c-12.7,1.8-1.6-47,36.7-40.4
				C1507.4,1113.6,1525.4,1132.3,1515.4,1147.5z M1487.5,1101.3c-7.5-0.6-14.3,0.7-19.6,2.7c-49.6,18.9-0.6,50.6-51,4.2
				c29.3-51.3,102.8-52.2,133.3-1.4C1498,1154,1548.4,1106.2,1487.5,1101.3z M1691.4,1332.2c-3.7-30.3-7.6-24.9-1.2-24.9
				C1699.9,1307.4,1695.3,1300.4,1691.4,1332.2z M1690.2,1298.3c-12.5,0-0.8-3.3-26-46.2c-14.1-24,40.6-41.7,58.4-6.4
				C1691.5,1294.2,1707.6,1298.3,1690.2,1298.3z M1745.7,1215.7c-29,31.2-7.7,23.1-31.2,8c-9.1-5.8-21.6-8.8-34-6.1
				c-46.2,10.1-8,36.3-43.5-1.9c-12-12.9,32.9-33.5,61-30.6C1719.9,1187.3,1754.1,1206.7,1745.7,1215.7z M1778.3,1187.2
				c-29,20.6-18.2,21.9-29.5,11.4c-31.8-29.4-80.3-30.8-113.6-3.2c-14.7,12.2-1.5,12.4-30.7-8.3c-10.6-7.5,62.2-69,138.3-31
				C1753.2,1161.5,1784.3,1182.9,1778.3,1187.2z M1814.9,1166.5c-31.5,13.9-24.1,17.3-30.2,10.6c-43-47.9-115.9-57-169.5-17.7
				c-34.8,25.5-7.4,24.7-47.4,7.1c-8.4-3.7,44.5-63.6,122.3-63.6C1770.3,1102.9,1819.4,1164.5,1814.9,1166.5z M1930.2,1147.5
				c-5.6,8.5-12.1-3.8-62.1,3.6c-12.8,1.9-1.6-47,36.7-40.4C1922.3,1113.6,1940.2,1132.3,1930.2,1147.5z M1902.4,1101.3
				c-7.5-0.6-14.3,0.7-19.6,2.7c-49.6,18.9-0.6,50.6-51,4.2c29.3-51.3,102.8-52.2,133.3-1.4C1913,1153.9,1963,1106.2,1902.4,1101.3z
				 M1972,1100.8c-24.3-38.9-74.8-52.3-115-29.9c-48.9,27.2-11.3,42.5-54,15c-18.4-11.9,102-113.8,185.6-16.3
				C2003.7,1087.4,1999.6,1078,1972,1100.8z M1776.3,1045.1c62.9-76.2,180-76.9,243.9-1.3c21,24.8,15.4,20.3,1,26.7
				c-24.6,10.8-7.1,10.5-34.1-15.6c-44.9-43.3-113.8-47.3-163.2-11.1c-48.2,35.3-16,41.5-49.7,26.7
				C1761.9,1065.2,1756,1069.5,1776.3,1045.1z M1857.7,1152.9c-36.3,7.3-29.9,12.5-34.6,6.5c-66.4-85.6-194-87.1-262.4-4.6
				c-6.7,8-2.6,7.5-11.4,4.6c-26.5-8.7-35.7,0.1-7.9-30.9C1629.2,1030.7,1785.6,1042.5,1857.7,1152.9z M1690.2,1052.9
				c-27.1,0-13.1,7.1-31.3-20.7c14.8-25.3,50.7-23.5,63.6,2C1705.9,1060.1,1719.7,1052.9,1690.2,1052.9z M1708.1,1008.7
				c-11.1-4.8-22.3-4.8-33.1-0.9c-39.8,14.2-2.9,31.7-42.6-8.5c31.6-35.7,86.7-34.2,116.8,1.3
				C1710.1,1040.8,1745.2,1024.8,1708.1,1008.7z M1778.3,975.8c-29,20.6-18.2,21.9-29.5,11.4c-31.8-29.4-80.3-30.8-113.6-3.2
				c-14.7,12.2-1.5,12.4-30.7-8.3c-10.6-7.5,62.2-69,138.3-31C1752.5,949.7,1784.3,971.5,1778.3,975.8z M1814.9,955
				c-31.5,13.9-24.1,17.3-30.2,10.6c-43.3-48.2-116.2-56.8-169.5-17.7c-34.8,25.5-7.4,24.7-47.4,7.1c-9-3.9,45.3-63.6,122.3-63.6
				C1770.3,891.4,1819.4,953,1814.9,955z M1930.2,936c-5.6,8.5-12.1-3.8-62.1,3.6c-12.8,1.9-1.6-47,36.7-40.4
				C1922.3,902.2,1940.2,920.9,1930.2,936z M1902.4,889.9c-7.5-0.6-14.2,0.7-19.6,2.7c-49.6,18.9-0.6,50.6-51,4.2
				c29.3-51.3,102.8-52.2,133.3-1.4C1912.6,942.8,1963.3,894.8,1902.4,889.9z M1972,889.4c-24.3-38.9-74.8-52.3-115-29.9
				c-52.4,29.2-10.4,43.1-54,15c-18.4-11.8,102-113.8,185.6-16.3C2003.7,876,1999.6,866.5,1972,889.4z M1776.3,833.7
				c63.2-76.6,180.3-76.6,243.9-1.3c21,24.8,15.4,20.3,1,26.7c-24.6,10.8-7.1,10.5-34.1-15.6c-45.4-43.8-114.4-46.9-163.2-11.1
				c-48.2,35.3-16,41.5-49.7,26.7C1761.9,853.7,1756,858.1,1776.3,833.7z M1857.7,941.5c-36.3,7.3-29.9,12.5-34.6,6.5
				c-66.4-85.6-194-87.1-262.4-4.6c-6.7,8-2.6,7.5-11.4,4.6c-26.5-8.7-35.7,0.1-7.9-30.9C1628.7,819.9,1785.1,830.4,1857.7,941.5z
				 M1690.2,841.4c-27.1,0-13.1,7.1-31.3-20.7c14.9-25.5,50.9-23.2,63.6,2C1705.9,848.7,1719.7,841.4,1690.2,841.4z M1708.1,797.3
				c-11.1-4.8-22.3-4.8-33.1-0.9c-39.8,14.2-2.8,31.7-42.6-8.5c31.7-35.8,86.8-34.1,116.8,1.3
				C1710.1,829.3,1745.2,813.3,1708.1,797.3z M1778.3,764.3c-29.4,20.8-18.1,22-29.5,11.4c-31.8-29.4-80.3-30.8-113.6-3.2
				c-14.7,12.2-1.5,12.4-30.7-8.3c-10.6-7.5,62.2-69,138.3-31C1752.5,738.2,1784.3,760.1,1778.3,764.3z M1814.9,743.6
				c-31.5,13.9-24.1,17.3-30.2,10.6c-43.2-48.1-116.1-56.9-169.5-17.7c-34.6,25.4-7.4,24.7-47.4,7.1c-8.5-3.7,44.6-63.6,122.3-63.6
				C1770.5,680,1819.3,741.6,1814.9,743.6z M1930.2,724.6c-4.4,6.8,2.9,1.4-31.4,1.4c-36.3,0-29,5.9-33.8-1.4
				c-9.6-14.6,19.5-49.6,50.7-33C1926.1,697.1,1939,711.2,1930.2,724.6z M1912.3,680.4c-6.5-2-12-2.7-19.5-1.7
				c-58.4,7.8-9.7,54-61.1,6.6c29.3-51.3,102.8-52.2,133.3-1.4C1915.1,729.1,1963,696.3,1912.3,680.4z M1984.5,668.4
				c-24.1,17.1-1.2,9-36.4-15.6c-29.6-20.7-70.3-21.5-101.3,2c-33.5,25.4-9.6,32.4-36.1,13.6c-10.7-7.6-19.2-5.4,6.2-29.9
				c44.4-42.8,114.8-44.5,161.2-2.4C2006.5,662,1996.7,659.8,1984.5,668.4z M1776.3,622.2c62.7-76,179.7-77.2,243.9-1.3
				c21,24.8,15.4,20.3,1,26.7c-24.6,10.8-7.1,10.5-34.1-15.6c-44.8-43.2-113.6-47.5-163.2-11.1c-48.3,35.4-16,41.5-49.7,26.7
				C1761.9,642.3,1756,646.6,1776.3,622.2z M1857.7,730c-35.5,7.1-30,12.4-34.6,6.5c-66.5-85.8-194.1-86.9-262.4-4.6
				c-6.7,8-2.6,7.5-11.4,4.6c-26.3-8.7-35.7,0-7.9-30.9C1628.7,608.4,1785.2,619,1857.7,730z M1690.2,630c-24.4,0-15.6,5.5-26-12.2
				c-14.2-24.1,40.6-41.7,58.4-6.4C1705.9,637.3,1719.7,630,1690.2,630z M1745.7,581.4c-29,31.2-7.7,23-31.2,8
				c-9.2-5.9-21.6-8.8-34-6.1c-46.2,10.1-8,36.3-43.5-1.9c-12-12.9,32.9-33.5,61-30.6C1719.9,553,1754.1,572.3,1745.7,581.4z
				 M1778.3,552.9c-29,20.6-18.2,21.9-29.5,11.4c-31.8-29.4-80.3-30.8-113.6-3.2c-14.7,12.2-1.5,12.4-30.7-8.3
				c-10.6-7.5,62-69.1,138.3-31C1753.2,527.2,1784.3,548.6,1778.3,552.9z M1814.9,532.1c-31.5,13.9-24.1,17.3-30.2,10.6
				c-43-47.9-115.9-57-169.5-17.7c-34.6,25.4-7.4,24.7-47.4,7.1c-8.6-3.8,44.8-63.6,122.3-63.6
				C1770.5,468.5,1819.3,530.2,1814.9,532.1z M1930.2,513.1c-4.4,6.8,2.9,1.4-31.4,1.4c-36.4,0-29,6-33.8-1.4
				c-9.9-15.1,19.9-49.4,50.7-33C1926.1,485.6,1939,499.8,1930.2,513.1z M1912.3,468.9c-6.4-2-11.8-2.7-19.5-1.7
				c-58.4,7.8-9.7,54-61.1,6.6c29.3-51.3,102.9-52.2,133.3-1.4C1915.1,517.6,1963,484.8,1912.3,468.9z M1984.5,457
				c-24.1,17.1-1.2,9-36.4-15.6c-29.5-20.7-70.3-21.5-101.3,2c-33.5,25.4-9.6,32.4-36.1,13.6c-10.7-7.6-19.2-5.4,6.2-29.9
				c44.8-43.1,115-44.2,161.2-2.4C2006.5,450.5,1996.7,448.3,1984.5,457z M2020.2,409.5c21,24.8,15.4,20.3,1,26.7
				c-29.9,13.1-1.6,6.9-47.4-26.7c-51.6-37.9-122-31-165.7,13.5c-28.5,29-2,24.4-46.1,8.3C1818.6,335.8,1950.5,327.1,2020.2,409.5z
				 M1857.7,518.6c-35.9,7.2-29.9,12.4-34.6,6.5c-66.7-86.2-194.5-86.5-262.4-4.6c-6.6,8-2.6,7.5-11.4,4.6
				c-26.2-8.6-35.7,0-7.9-30.9C1628.7,397,1785.2,407.5,1857.7,518.6z M1658.9,397.9c12.1-20.7,39-23.8,55.7-8.5
				c12.2,11.1,6.5,10.4-3.3,30.2C1655.5,414,1681.4,432.2,1658.9,397.9z M1745.7,369.9c-29,31.2-7.7,23-31.2,8
				c-9.3-5.9-21.8-8.8-34-6.1c-46.2,10.1-8,36.3-43.5-1.9c-11.7-12.6,30.5-31,53.2-31C1721.4,338.9,1753.1,362,1745.7,369.9z
				 M1736.2,343.2c-26.5-16.8-60.8-18.3-89.3-1.7c-35.5,20.7-4.6,25.4-46-2.6c47.9-55.3,132.9-53.9,179.4,1
				C1740.7,367.3,1768.6,363.7,1736.2,343.2z M1773,319.8c-47.2-40.6-115.9-40.6-162.9-2.4c-27.9,22.7-2.9,19.7-45.7,1.8
				c64.3-83.2,188.7-82.3,252.2,0.8C1776.1,337.3,1797.3,340.7,1773,319.8z M1930.2,301.7c-4.4,6.7,2.6,1.4-31.4,1.4
				c-36.4,0-29,6-33.8-1.4c-9.6-14.6,19.5-49.6,50.7-33C1926.1,274.2,1939,288.3,1930.2,301.7z M1941.6,286
				c-14.4-42-74-40.5-86.3,2.2c-23.5-30.2-30.5-22.2-11.9-41.3c29.1-29.9,76.5-31.5,107.6-3C1973.1,264.2,1964.2,257.7,1941.6,286z
				 M1972,255c-34.2-54.6-113.8-54.2-147.2,1.3c-27.9-23.6-30.2-14.2-18.8-28.7c46.2-58.6,133.8-60.5,182.4-3.8
				C2003.7,241.6,1999.6,232.2,1972,255z M2020.2,198.1c21,24.8,15.4,20.3,1,26.7c-29.9,13.2-1.6,6.9-47.4-26.7
				c-51.6-37.9-122-31-165.7,13.5c-28.5,29-2,24.4-46.1,8.3C1818.7,124.4,1950.5,115.6,2020.2,198.1z M1853.4,300.8
				c7.7,10.9,6.9,2.5-28.1,15.7c-67-90.7-202-91-269.6-0.7c-35.9-13.2-37.2-3.5-26.5-17.9C1610,188,1774.1,189,1853.4,300.8z
				 M1658.9,186.5c12.1-20.7,39-23.8,55.7-8.5c12.2,11.1,6.5,10.4-3.3,30.2C1655.5,202.5,1681.4,220.7,1658.9,186.5z M1745.7,158.5
				c-29,31.2-7.7,23-31.2,8c-9.3-5.9-21.8-8.8-34-6.1c-46.2,10.1-8,36.3-43.5-1.9c-11.7-12.6,30.5-31,53.2-31
				C1720.9,127.4,1753.3,150.3,1745.7,158.5z M1736.2,131.8c-26.6-16.8-60.9-18.2-89.3-1.7c-35.6,20.7-4.7,25.3-46-2.6
				c47.9-55.3,132.9-53.9,179.4,1C1740.7,155.9,1768.6,152.3,1736.2,131.8z M1773,108.3c-47.2-40.6-115.9-40.6-162.9-2.4
				c-27.9,22.7-2.9,19.7-45.7,1.8c64.3-83.2,188.7-82.3,252.2,0.8C1776.1,125.9,1797.3,129.2,1773,108.3z M1930.2,90.2
				c-4.4,6.8,2.9,1.4-31.4,1.4c-36.4,0-29,6-33.8-1.4c-10-15.2,19.9-49.4,50.7-33C1926.1,62.7,1939,76.9,1930.2,90.2z M1941.6,74.6
				c-14.4-42-74-40.5-86.3,2.2c-23.5-30.2-30.5-22.2-11.9-41.3c29.1-29.9,76.5-31.5,107.6-3C1973.1,52.8,1964.2,46.3,1941.6,74.6z
				 M1972,43.6c-34.1-54.5-113.8-54.3-147.2,1.3c-28-23.7-30.3-14.1-18.8-28.7c46.1-58.4,133.9-60.4,182.4-3.8
				C2003.7,30.2,1999.6,20.8,1972,43.6z M2019.1-14.6c22.6,26.2,16.2,21.6,2,27.9c-24.6,10.8-7.1,10.5-34.1-15.6
				c-51.2-49.4-130.7-46.7-178.9,2.4c-28.5,29-2,24.4-46.1,8.3C1817.7-85.5,1947.9-97,2019.1-14.6z M1853.4,89.3
				c7.7,10.9,6.9,2.5-28.1,15.7c-67.2-90.8-202.1-90.9-269.6-0.7c-35.9-13.2-37.2-3.5-26.5-17.9C1609.8-23.2,1774-22.6,1853.4,89.3z
				 M1658.9-25c14.7-25.1,50.6-23.8,63.6,2c-4.1,6.4-7.8,12.9-11.2,19.7C1655.9-8.9,1681.2,9.1,1658.9-25z M1728.2-31.4
				c-17.5-26.8-56.1-27.8-74.9-1.7c-6.4-8.8-13.3-17.1-20.9-24.7c31.3-35.4,86.2-34.8,116.8,1.3
				C1741.5-48.8,1734.6-40.4,1728.2-31.4z M1755.6-62.9c-34.1-39.6-94.7-40.4-129.8-1.2c-7.8-7.2-16.1-13.9-24.9-19.8
				c47.8-55.2,132.6-54.3,179.4,1C1771.6-76.9,1763.3-70.2,1755.6-62.9z M1788-88c-50.5-60.8-143.3-61.6-194.8-1
				c-9.2-5.6-18.8-10.6-28.8-14.8c64-82.9,188.3-82.9,252.2,0.8C1806.6-98.7,1797.1-93.7,1788-88z M1825.3-106.5
				c-67.3-90.9-201.8-91.3-269.6-0.7c-10.5-3.9-21.5-6.8-32.7-9c79.2-120.7,255.6-120.8,334.8,0.4
				C1846.5-113.5,1835.7-110.4,1825.3-106.5z"/>
			<path class="st4" d="M-160.8,1190.5c-9.9-0.9-19.4-0.9-28.8-0.1v8.8c89.7-7,180.7,64.5,172.7,170.8
				c-6.5,85.7-62.6,96.8-30.5,96.8C41.5,1362.4-26.1,1202-160.8,1190.5z"/>
			<path class="st4" d="M-181.8,1231c-2.6,0.1-5.2,0.4-7.8,0.7v10.5c61.9-7.5,129,27.6,132.1,111.2
				c4.4,115.9-118.2,113.4-52.1,113.4C3.6,1398.1-51.1,1224.3-181.8,1231z"/>
			<path class="st4" d="M-189.6,1273.9v8c2.9-0.5,6-0.8,9.1-1c105.2-6.9,110.5,154.3,5.1,154.3c-5,0-9.7-0.5-14.2-1.2v8.8
				c43.2,6.7,91.2-17.3,99.5-71.9C-79.3,1299.5-137.9,1267-189.6,1273.9z"/>
			<path class="st4" d="M-161.9,1314.7c-9.6-3-19.1-2.6-27.7,0.3v9.8c24-8.1,57.5,4.8,49.7,40.9c-5.3,24.4-30.5,33.7-49.7,25.8v9.6
				c22.2,7.1,49.4-2.9,57.5-30.2C-124.4,1345.5-139.4,1321.8-161.9,1314.7z"/>
			<path class="st4" d="M254,1190.5c-147.7-12.8-240.5,161.2-142.6,276.3h12.2c-56.1-59.6-56.9-151-5.6-211.4
				c100.3-118.6,291.4-37.2,279.9,114.7c-6.5,85.7-62.6,96.8-30.5,96.8C456.4,1362.3,388.5,1202,254,1190.5z"/>
			<path class="st4" d="M233,1231c-123.7,6.2-167.1,170.5-59.4,235.8c62.9,0-40.5,5.3-51.6-95.9c-17.5-159.6,229.2-179.3,235.3-17.4
				c4.4,115.9-118.2,113.4-52.1,113.4C418.1,1398.3,364.3,1224.3,233,1231z"/>
			<path class="st4" d="M324.7,1370.8c19.6-129.8-190.3-131-170.5,0C168.9,1468.1,310,1468.3,324.7,1370.8z M239.5,1435.1
				c-98.9,0-103.9-147.9-5.1-154.3C339.6,1274,344.9,1435.1,239.5,1435.1z"/>
			<path class="st4" d="M252.9,1314.7c-33.8-10.6-67.5,20.5-56.8,56.1c12.9,43.2,73.7,43.3,86.7,0
				C290.4,1345.5,275.4,1321.8,252.9,1314.7z M275,1365.6c-7.8,35.8-58.3,39.1-69.9,3.4C185.7,1309.6,288.1,1305.4,275,1365.6z"/>
			<path class="st4" d="M668.9,1190.5c-148.8-12.9-239.9,162-142.6,276.3h12.2c-55.6-59.1-57.4-150.4-5.6-211.4
				c100.3-118.6,291.4-37.2,279.9,114.7c-6.5,85.7-62.6,96.8-30.5,96.8C871.4,1362.1,803.1,1202,668.9,1190.5z"/>
			<path class="st4" d="M647.9,1231c-123.9,6.2-167,170.5-59.4,235.8c62.9,0-40.5,5.3-51.6-95.9c-17.5-159.5,229.2-179.3,235.3-17.4
				c4.4,115.9-118.2,113.4-52.1,113.4C832.7,1398.4,779.4,1224.3,647.9,1231z"/>
			<path class="st4" d="M739.6,1370.8c19.6-129.8-190.3-130.9-170.5,0C583.7,1468.1,724.8,1468.3,739.6,1370.8z M654.3,1435.1
				c-98.6,0-104.3-147.8-5.1-154.3C754.4,1274,759.7,1435.1,654.3,1435.1z"/>
			<path class="st4" d="M667.8,1314.7c-33.9-10.6-67.5,20.5-56.8,56.1c12.9,43.2,73.7,43.3,86.7,0
				C705.2,1345.5,690.3,1321.8,667.8,1314.7z M689.8,1365.6c-7.8,35.7-58.3,39.2-69.9,3.4C600.5,1309.6,702.9,1305.4,689.8,1365.6z"
				/>
			<path class="st4" d="M1083.7,1190.5c-148.3-12.8-240.3,161.6-142.6,276.3h12.2c-56.1-59.6-56.9-151-5.6-211.4
				c100.1-118.3,291.4-37.5,279.9,114.7c-6.5,85.7-62.6,96.8-30.5,96.8C1286,1362.4,1218.4,1202,1083.7,1190.5z"/>
			<path class="st4" d="M1062.7,1231c-123.7,6.2-167.1,170.4-59.4,235.8c62.9,0-40.5,5.3-51.6-95.9
				c-17.5-159.6,229.2-179.3,235.3-17.4c4.4,115.9-118.2,113.4-52.1,113.4C1247.7,1398.3,1194,1224.3,1062.7,1231z"/>
			<path class="st4" d="M1154.4,1370.8c19.6-129.8-190.3-131-170.5,0C998.6,1468.1,1139.6,1468.3,1154.4,1370.8z M1069.1,1435.1
				c-98.9,0-103.9-147.9-5.1-154.3C1169.3,1274,1174.5,1435.1,1069.1,1435.1z"/>
			<path class="st4" d="M1082.6,1314.7c-33.8-10.6-67.5,20.5-56.8,56.1c12.9,43.2,73.7,43.3,86.7,0
				C1120.1,1345.5,1105.1,1321.8,1082.6,1314.7z M1104.6,1365.6c-7.8,35.8-58.3,39.1-69.9,3.4
				C1015.3,1309.6,1117.7,1305.4,1104.6,1365.6z"/>
			<path class="st4" d="M1498.5,1190.5c-148.1-12.8-240.3,161.5-142.6,276.3h12.2c-56.1-59.6-56.9-151-5.6-211.4
				c100.3-118.6,291.4-37.2,279.9,114.7c-6.7,86.6-63.1,96.8-30.5,96.8C1701.1,1362.1,1632.8,1202,1498.5,1190.5z"/>
			<path class="st4" d="M1477.5,1231c-123.9,6.2-167,170.5-59.4,235.8c62.9,0-40.5,5.3-51.6-95.9
				c-17.4-159.1,229.2-179.5,235.3-17.4c4.3,115.9-118.1,113.4-52.1,113.4C1661.9,1398.7,1609.4,1224.2,1477.5,1231z"/>
			<path class="st4" d="M1569.2,1370.8c19.6-130-190.3-130.5-170.5,0C1413.4,1468.1,1554.5,1468.3,1569.2,1370.8z M1484,1435.1
				c-98.6,0-104.3-147.8-5.1-154.3C1583.9,1274,1589.5,1435.1,1484,1435.1z"/>
			<path class="st4" d="M1497.4,1314.7c-33.9-10.6-67.5,20.5-56.8,56.1c12.9,43.2,73.7,43.3,86.7,0
				C1534.9,1345.4,1519.9,1321.7,1497.4,1314.7z M1519.4,1365.6c-7.8,35.7-58.3,39.2-69.9,3.4
				C1430.2,1309.6,1532.6,1305.3,1519.4,1365.6z"/>
			<path class="st4" d="M2061,1314.8c-17.5-64.3-72.2-117.8-147.7-124.3c-148.3-12.8-240.2,161.6-142.5,276.3h12.2
				c-55.7-59.2-57.3-150.4-5.6-211.4c100.4-118.5,291.4-37.2,279.9,114.7c-6.3,85.7-62.7,96.8-30.5,96.8
				c16.8-19.8,28.1-41.5,34.3-63.9V1314.8z"/>
			<path class="st4" d="M1892.4,1231c-123.7,6.2-167.1,170.4-59.4,235.8c62.9,0-40.5,5.4-51.6-95.9
				c-17.5-159.5,229.2-179.3,235.3-17.4c4.3,115.9-118.2,113.4-52.1,113.4C2077.2,1398.4,2023.8,1224.3,1892.4,1231z"/>
			<path class="st4" d="M1984.1,1370.8c19.7-130.1-190.2-130.2-170.5,0C1828.2,1468.1,1969.3,1468.3,1984.1,1370.8z M1898.8,1435.1
				c-98.6,0-104.3-147.8-5.1-154.3C1999,1273.9,2004.2,1435.1,1898.8,1435.1z"/>
			<path class="st4" d="M1912.3,1314.7c-34.1-10.7-67.4,20.7-56.8,56.1c12.9,43.2,73.7,43.3,86.7,0
				C1949.7,1345.5,1934.8,1321.8,1912.3,1314.7z M1934.3,1365.6c-7.9,35.9-58.4,38.9-69.9,3.4
				C1845,1309.6,1947.4,1305.4,1934.3,1365.6z"/>
		</g>
	</g>
</g>
</svg>
